# Blender 4.3.2
# www.blender.org
mtllib chest.mtl
o Cube.009
v -2.100000 -1.100000 -0.800000
v -2.100000 1.100000 -0.800000
v -2.100000 -1.100000 -1.200000
v -2.100000 1.100000 -1.200000
v 2.100000 -1.100000 -0.800000
v 2.100000 1.100000 -0.800000
v 2.100000 -1.100000 -1.200000
v 2.100000 1.100000 -1.200000
v -2.000000 -1.000000 1.000000
v -2.000000 1.000000 1.000000
v -2.000000 -1.000000 -1.000000
v -2.000000 1.000000 -1.000000
v 2.000000 -1.000000 1.000000
v 2.000000 1.000000 1.000000
v 2.000000 -1.000000 -1.000000
v 2.000000 1.000000 -1.000000
v 2.000000 -1.028150 -1.077593
v -2.000000 -1.028150 -1.077592
v 2.000000 -1.016544 -1.273339
v -2.000000 -1.016544 -1.273339
v 2.000000 -0.965872 -1.463214
v -2.000000 -0.965872 -1.463214
v 2.000000 -0.878083 -1.639922
v -2.000000 -0.878083 -1.639922
v 2.000000 -0.756549 -1.796672
v -2.000000 -0.756549 -1.796672
v 2.000000 -0.605941 -1.927441
v -2.000000 -0.605941 -1.927441
v 2.000000 -0.432048 -2.027202
v -2.000000 -0.432048 -2.027202
v 2.000000 -0.241551 -2.092121
v -2.000000 -0.241551 -2.092121
v 2.000000 -0.041772 -2.119705
v -2.000000 -0.041772 -2.119705
v 2.000000 0.159613 -2.108893
v -2.000000 0.159613 -2.108893
v 2.000000 0.354864 -2.060101
v -2.000000 0.354864 -2.060101
v 2.000000 0.536478 -1.975203
v -2.000000 0.536478 -1.975203
v 2.000000 0.697475 -1.857463
v -2.000000 0.697475 -1.857462
v 2.000000 0.831668 -1.711404
v -2.000000 0.831668 -1.711404
v 2.000000 0.933902 -1.542640
v -2.000000 0.933902 -1.542640
v 2.000000 1.000245 -1.357657
v -2.000000 1.000245 -1.357656
v 2.000000 1.028150 -1.163562
v -2.000000 1.028150 -1.163562
v -2.001579 -1.009374 -0.925144
v 1.998421 -1.009374 -0.925144
v -1.987794 1.032424 -0.874601
v 2.012206 1.032424 -0.874601
v -2.001579 -1.009374 -0.925144
v 1.998421 -1.009374 -0.925144
v -1.987794 1.032424 -0.874601
v 2.012206 1.032424 -0.874601
vn -1.0000 -0.0000 -0.0000
vn -0.0000 -0.0000 -1.0000
vn 1.0000 -0.0000 -0.0000
vn -0.0000 -0.0000 1.0000
vn -0.0000 -1.0000 -0.0000
vn -0.0000 1.0000 -0.0000
vn -0.0000 -0.9982 -0.0592
vn -0.0000 -0.9662 -0.2578
vn -0.0000 -0.8956 -0.4449
vn -0.0000 -0.7903 -0.6127
vn -0.0000 -0.6556 -0.7551
vn -0.0000 -0.4976 -0.8674
vn -0.0000 -0.3226 -0.9465
vn -0.0000 -0.1368 -0.9906
vn -0.0000 0.0536 -0.9986
vn -0.0000 0.2424 -0.9702
vn -0.0000 0.4235 -0.9059
vn -0.0000 0.5903 -0.8072
vn -0.0000 0.7364 -0.6766
vn -0.0000 0.8553 -0.5181
vn -0.0000 0.9413 -0.3376
vn -0.0000 0.9898 -0.1423
vn -0.0000 -0.9925 0.1222
vn -0.0000 0.9999 -0.0148
vn -0.0000 -0.0247 0.9997
vn 0.9991 -0.0057 -0.0421
vn -0.9999 0.0070 -0.0112
vn 0.9999 0.0004 0.0103
vn -0.9991 0.0018 0.0422
vt 0.653854 0.171681
vt 0.822749 0.002785
vt 0.822749 0.171681
vt 0.653854 0.346146
vt 0.822749 0.177251
vt 0.822749 0.346146
vt 0.653854 0.520612
vt 0.822749 0.351716
vt 0.822749 0.520612
vt 0.653854 0.695077
vt 0.822749 0.526182
vt 0.822749 0.695077
vt 0.997215 0.171681
vt 0.828319 0.002785
vt 0.997215 0.002785
vt 0.997215 0.346146
vt 0.828319 0.177251
vt 0.997215 0.177251
vt 0.335631 0.847263
vt 0.489172 0.002785
vt 0.489172 0.847263
vt 0.828319 0.512569
vt 0.981861 0.351716
vt 0.981861 0.512569
vt 0.494742 0.847263
vt 0.648284 0.002785
vt 0.648284 0.847263
vt 0.828319 0.678992
vt 0.981861 0.518139
vt 0.981861 0.678992
vt 0.002785 0.847263
vt 0.163638 0.002785
vt 0.163638 0.847263
vt 0.169208 0.847263
vt 0.330061 0.002785
vt 0.330061 0.847263
vt 0.750000 0.500000
vt 0.718750 1.000000
vt 0.718750 0.500000
vt 0.687500 1.000000
vt 0.687500 0.500000
vt 0.656250 1.000000
vt 0.656250 0.500000
vt 0.625000 1.000000
vt 0.625000 0.500000
vt 0.593750 0.500000
vt 0.562500 1.000000
vt 0.562500 0.500000
vt 0.531250 1.000000
vt 0.531250 0.500000
vt 0.500000 0.500000
vt 0.500000 1.000000
vt 0.468750 0.500000
vt 0.468750 1.000000
vt 0.437500 0.500000
vt 0.437500 1.000000
vt 0.406250 0.500000
vt 0.406250 1.000000
vt 0.375000 0.500000
vt 0.375000 1.000000
vt 0.343750 0.500000
vt 0.343750 1.000000
vt 0.312500 0.500000
vt 0.312500 1.000000
vt 0.281250 0.500000
vt 0.281250 1.000000
vt 0.250000 0.500000
vt 0.750000 1.000000
vt 0.250000 1.000000
vt 0.653854 0.002785
vt 0.653854 0.177251
vt 0.653854 0.351716
vt 0.653854 0.526182
vt 0.828319 0.171681
vt 0.828319 0.346146
vt 0.335631 0.002785
vt 0.828319 0.351716
vt 0.494742 0.002785
vt 0.828319 0.518139
vt 0.002785 0.002785
vt 0.169208 0.002785
vt 0.593750 1.000000
s 0
f 2/1/1 3/2/1 1/3/1
f 4/4/2 7/5/2 3/6/2
f 8/7/3 5/8/3 7/9/3
f 6/10/4 1/11/4 5/12/4
f 7/13/5 1/14/5 3/15/5
f 4/16/6 6/17/6 8/18/6
f 10/19/1 11/20/1 9/21/1
f 12/22/2 15/23/2 11/24/2
f 16/25/3 13/26/3 15/27/3
f 14/28/4 9/29/4 13/30/4
f 15/31/5 9/32/5 11/33/5
f 12/34/6 14/35/6 16/36/6
f 17/37/7 20/38/7 19/39/7
f 19/39/8 22/40/8 21/41/8
f 21/41/9 24/42/9 23/43/9
f 23/43/10 26/44/10 25/45/10
f 26/44/11 27/46/11 25/45/11
f 27/46/12 30/47/12 29/48/12
f 29/48/13 32/49/13 31/50/13
f 32/49/14 33/51/14 31/50/14
f 34/52/15 35/53/15 33/51/15
f 36/54/16 37/55/16 35/53/16
f 38/56/17 39/57/17 37/55/17
f 40/58/18 41/59/18 39/57/18
f 42/60/19 43/61/19 41/59/19
f 44/62/20 45/63/20 43/61/20
f 46/64/21 47/65/21 45/63/21
f 48/66/22 49/67/22 47/65/22
f 18/68/23 52/37/23 51/68/23
f 49/67/24 53/69/24 54/67/24
f 54/67/6 57/69/6 58/67/6
f 51/68/6 56/37/6 55/68/6
f 56/37/25 57/69/25 55/68/25
f 49/67/26 54/67/26 56/37/26
f 18/68/27 51/68/27 57/69/27
f 2/1/1 4/70/1 3/2/1
f 4/4/2 8/71/2 7/5/2
f 8/7/3 6/72/3 5/8/3
f 6/10/4 2/73/4 1/11/4
f 7/13/5 5/74/5 1/14/5
f 4/16/6 2/75/6 6/17/6
f 10/19/1 12/76/1 11/20/1
f 12/22/2 16/77/2 15/23/2
f 16/25/3 14/78/3 13/26/3
f 14/28/4 10/79/4 9/29/4
f 15/31/5 13/80/5 9/32/5
f 12/34/6 10/81/6 14/35/6
f 17/37/7 18/68/7 20/38/7
f 19/39/8 20/38/8 22/40/8
f 21/41/9 22/40/9 24/42/9
f 23/43/10 24/42/10 26/44/10
f 26/44/11 28/82/11 27/46/11
f 27/46/12 28/82/12 30/47/12
f 29/48/13 30/47/13 32/49/13
f 32/49/14 34/52/14 33/51/14
f 34/52/15 36/54/15 35/53/15
f 36/54/16 38/56/16 37/55/16
f 38/56/17 40/58/17 39/57/17
f 40/58/18 42/60/18 41/59/18
f 42/60/19 44/62/19 43/61/19
f 44/62/20 46/64/20 45/63/20
f 46/64/21 48/66/21 47/65/21
f 48/66/22 50/69/22 49/67/22
f 18/68/23 17/37/23 52/37/23
f 49/67/24 50/69/24 53/69/24
f 54/67/6 53/69/6 57/69/6
f 51/68/6 52/37/6 56/37/6
f 56/37/25 58/67/25 57/69/25
f 17/37/3 19/39/3 21/41/3
f 21/41/3 23/43/3 25/45/3
f 25/45/3 27/46/3 29/48/3
f 29/48/3 31/50/3 33/51/3
f 33/51/3 35/53/3 37/55/3
f 37/55/3 39/57/3 41/59/3
f 41/59/3 43/61/3 45/63/3
f 45/63/3 47/65/3 49/67/3
f 41/59/3 45/63/3 49/67/3
f 33/51/3 37/55/3 41/59/3
f 25/45/3 29/48/3 33/51/3
f 17/37/3 21/41/3 25/45/3
f 17/37/3 25/45/3 33/51/3
f 33/51/3 41/59/3 49/67/3
f 17/37/3 33/51/3 49/67/3
f 56/37/6 52/37/6 17/37/6
f 56/37/28 17/37/28 49/67/28
f 54/67/6 58/67/6 56/37/6
f 22/40/1 20/38/1 18/68/1
f 24/42/1 22/40/1 18/68/1
f 28/82/1 26/44/1 24/42/1
f 32/49/1 30/47/1 28/82/1
f 36/54/1 34/52/1 32/49/1
f 40/58/1 38/56/1 36/54/1
f 44/62/1 42/60/1 40/58/1
f 48/66/1 46/64/1 44/62/1
f 28/82/1 24/42/1 18/68/1
f 36/54/1 32/49/1 28/82/1
f 44/62/1 40/58/1 36/54/1
f 50/69/1 48/66/1 44/62/1
f 50/69/1 44/62/1 36/54/1
f 36/54/1 28/82/1 18/68/1
f 50/69/1 36/54/1 18/68/1
f 57/69/6 53/69/6 50/69/6
f 57/69/29 50/69/29 18/68/29
f 51/68/6 55/68/6 57/69/6
