# Blender v2.92.0 OBJ File: 'untitled.blend'
# www.blender.org
mtllib exit.mtl
o pLay_Play
v 0.414347 0.037707 -0.176805
v 0.414347 0.037707 -0.132725
v 0.336106 0.037707 -0.132725
v 0.336106 0.037707 -0.005997
v 0.336526 0.037707 0.000875
v 0.337723 0.037707 0.006918
v 0.339601 0.037707 0.012177
v 0.342064 0.037707 0.016696
v 0.345018 0.037707 0.020518
v 0.348365 0.037707 0.023688
v 0.352011 0.037707 0.026249
v 0.355860 0.037707 0.028246
v 0.359816 0.037707 0.029723
v 0.363783 0.037707 0.030723
v 0.367666 0.037707 0.031291
v 0.371369 0.037707 0.031470
v 0.375789 0.037707 0.031344
v 0.380236 0.037707 0.030965
v 0.384714 0.037707 0.030334
v 0.389225 0.037707 0.029450
v 0.393776 0.037707 0.028314
v 0.398368 0.037707 0.026925
v 0.403006 0.037707 0.025283
v 0.407694 0.037707 0.023389
v 0.412435 0.037707 0.021243
v 0.417234 0.037707 0.018844
v 0.422094 0.037707 0.016192
v 0.427019 0.037707 0.013288
v 0.427019 0.037707 0.059020
v 0.422566 0.037707 0.061313
v 0.417790 0.037707 0.063497
v 0.412763 0.037707 0.065555
v 0.407551 0.037707 0.067469
v 0.402225 0.037707 0.069222
v 0.396853 0.037707 0.070798
v 0.391503 0.037707 0.072178
v 0.386246 0.037707 0.073346
v 0.381149 0.037707 0.074284
v 0.376282 0.037707 0.074976
v 0.371714 0.037707 0.075404
v 0.367512 0.037707 0.075550
v 0.354702 0.037707 0.074874
v 0.342996 0.037707 0.072894
v 0.332395 0.037707 0.069687
v 0.322902 0.037707 0.065326
v 0.314519 0.037707 0.059886
v 0.307247 0.037707 0.053441
v 0.301089 0.037707 0.046067
v 0.296046 0.037707 0.037837
v 0.292121 0.037707 0.028827
v 0.289315 0.037707 0.019111
v 0.287629 0.037707 0.008764
v 0.287067 0.037707 -0.002140
v 0.287067 0.037707 -0.132725
v 0.244090 0.037707 -0.132725
v 0.244090 0.037707 -0.138235
v 0.336106 0.037707 -0.228047
v 0.336106 0.037707 -0.176805
v 0.159237 0.037707 0.070591
v 0.159237 0.037707 -0.176805
v 0.208275 0.037707 -0.176805
v 0.208275 0.037707 0.070591
v 0.180100 0.037707 -0.222807
v 0.176320 0.037707 -0.223591
v 0.172728 0.037707 -0.224853
v 0.169359 0.037707 -0.226557
v 0.166250 0.037707 -0.228667
v 0.163438 0.037707 -0.231147
v 0.160959 0.037707 -0.233959
v 0.158849 0.037707 -0.237067
v 0.157145 0.037707 -0.240436
v 0.155882 0.037707 -0.244029
v 0.155098 0.037707 -0.247809
v 0.154829 0.037707 -0.251740
v 0.155098 0.037707 -0.255671
v 0.155883 0.037707 -0.259451
v 0.157145 0.037707 -0.263044
v 0.158849 0.037707 -0.266413
v 0.160959 0.037707 -0.269521
v 0.163438 0.037707 -0.272333
v 0.166250 0.037707 -0.274812
v 0.169359 0.037707 -0.276922
v 0.172728 0.037707 -0.278627
v 0.176320 0.037707 -0.279889
v 0.180100 0.037707 -0.280673
v 0.184032 0.037707 -0.280942
v 0.187963 0.037707 -0.280673
v 0.191743 0.037707 -0.279889
v 0.195336 0.037707 -0.278627
v 0.198704 0.037707 -0.276922
v 0.201813 0.037707 -0.274812
v 0.204625 0.037707 -0.272333
v 0.207104 0.037707 -0.269521
v 0.209214 0.037707 -0.266413
v 0.210918 0.037707 -0.263044
v 0.212181 0.037707 -0.259451
v 0.212965 0.037707 -0.255671
v 0.213234 0.037707 -0.251740
v 0.212965 0.037707 -0.247809
v 0.212181 0.037707 -0.244029
v 0.210918 0.037707 -0.240436
v 0.209214 0.037707 -0.237067
v 0.207104 0.037707 -0.233959
v 0.204625 0.037707 -0.231147
v 0.201813 0.037707 -0.228667
v 0.198704 0.037707 -0.226557
v 0.195336 0.037707 -0.224853
v 0.191743 0.037707 -0.223591
v 0.187963 0.037707 -0.222807
v 0.184032 0.037707 -0.222537
v 0.123422 0.037707 0.070591
v 0.060609 0.037707 0.070591
v -0.017081 0.037707 -0.018119
v -0.090363 0.037707 0.070591
v -0.152074 0.037707 0.070591
v -0.047936 0.037707 -0.055035
v -0.152074 0.037707 -0.176805
v -0.090363 0.037707 -0.176805
v -0.017081 0.037707 -0.091952
v 0.053446 0.037707 -0.176805
v 0.116259 0.037707 -0.176805
v 0.014326 0.037707 -0.055035
v -0.332249 0.037707 -0.256699
v -0.332249 0.037707 -0.143194
v -0.178522 0.037707 -0.143194
v -0.178522 0.037707 -0.094707
v -0.332249 0.037707 -0.094707
v -0.332249 0.037707 0.022104
v -0.168053 0.037707 0.022104
v -0.168053 0.037707 0.070591
v -0.386246 0.037707 0.070591
v -0.386246 0.037707 -0.305186
v -0.173012 0.037707 -0.305186
v -0.173012 0.037707 -0.256699
v 0.414347 -0.037707 -0.176805
v 0.414347 -0.037707 -0.132725
v 0.336106 -0.037707 -0.132725
v 0.336106 -0.037707 -0.005997
v 0.336526 -0.037707 0.000875
v 0.337723 -0.037707 0.006918
v 0.339601 -0.037707 0.012177
v 0.342064 -0.037707 0.016696
v 0.345018 -0.037707 0.020518
v 0.348365 -0.037707 0.023688
v 0.352011 -0.037707 0.026249
v 0.355860 -0.037707 0.028246
v 0.359816 -0.037707 0.029723
v 0.363783 -0.037707 0.030723
v 0.367666 -0.037707 0.031291
v 0.371369 -0.037707 0.031470
v 0.375789 -0.037707 0.031344
v 0.380236 -0.037707 0.030965
v 0.384714 -0.037707 0.030334
v 0.389225 -0.037707 0.029450
v 0.393776 -0.037707 0.028314
v 0.398368 -0.037707 0.026925
v 0.403006 -0.037707 0.025283
v 0.407694 -0.037707 0.023389
v 0.412435 -0.037707 0.021243
v 0.417234 -0.037707 0.018844
v 0.422094 -0.037707 0.016192
v 0.427019 -0.037707 0.013288
v 0.427019 -0.037707 0.059020
v 0.422566 -0.037707 0.061313
v 0.417790 -0.037707 0.063497
v 0.412763 -0.037707 0.065555
v 0.407551 -0.037707 0.067469
v 0.402225 -0.037707 0.069222
v 0.396853 -0.037707 0.070798
v 0.391503 -0.037707 0.072178
v 0.386246 -0.037707 0.073346
v 0.381149 -0.037707 0.074284
v 0.376282 -0.037707 0.074976
v 0.371714 -0.037707 0.075404
v 0.367512 -0.037707 0.075550
v 0.354702 -0.037707 0.074874
v 0.342996 -0.037707 0.072894
v 0.332395 -0.037707 0.069687
v 0.322902 -0.037707 0.065326
v 0.314519 -0.037707 0.059886
v 0.307247 -0.037707 0.053441
v 0.301089 -0.037707 0.046067
v 0.296046 -0.037707 0.037837
v 0.292121 -0.037707 0.028827
v 0.289315 -0.037707 0.019111
v 0.287629 -0.037707 0.008764
v 0.287067 -0.037707 -0.002140
v 0.287067 -0.037707 -0.132725
v 0.244090 -0.037707 -0.132725
v 0.244090 -0.037707 -0.138235
v 0.336106 -0.037707 -0.228047
v 0.336106 -0.037707 -0.176805
v 0.159237 -0.037707 0.070591
v 0.159237 -0.037707 -0.176805
v 0.208275 -0.037707 -0.176805
v 0.208275 -0.037707 0.070591
v 0.180100 -0.037707 -0.222807
v 0.176320 -0.037707 -0.223591
v 0.172728 -0.037707 -0.224853
v 0.169359 -0.037707 -0.226557
v 0.166250 -0.037707 -0.228667
v 0.163438 -0.037707 -0.231147
v 0.160959 -0.037707 -0.233959
v 0.158849 -0.037707 -0.237067
v 0.157145 -0.037707 -0.240436
v 0.155882 -0.037707 -0.244029
v 0.155098 -0.037707 -0.247809
v 0.154829 -0.037707 -0.251740
v 0.155098 -0.037707 -0.255671
v 0.155883 -0.037707 -0.259451
v 0.157145 -0.037707 -0.263044
v 0.158849 -0.037707 -0.266413
v 0.160959 -0.037707 -0.269521
v 0.163438 -0.037707 -0.272333
v 0.166250 -0.037707 -0.274812
v 0.169359 -0.037707 -0.276922
v 0.172728 -0.037707 -0.278627
v 0.176320 -0.037707 -0.279889
v 0.180100 -0.037707 -0.280673
v 0.184032 -0.037707 -0.280942
v 0.187963 -0.037707 -0.280673
v 0.191743 -0.037707 -0.279889
v 0.195336 -0.037707 -0.278627
v 0.198704 -0.037707 -0.276922
v 0.201813 -0.037707 -0.274812
v 0.204625 -0.037707 -0.272333
v 0.207104 -0.037707 -0.269521
v 0.209214 -0.037707 -0.266413
v 0.210918 -0.037707 -0.263044
v 0.212181 -0.037707 -0.259451
v 0.212965 -0.037707 -0.255671
v 0.213234 -0.037707 -0.251740
v 0.212965 -0.037707 -0.247809
v 0.212181 -0.037707 -0.244029
v 0.210918 -0.037707 -0.240436
v 0.209214 -0.037707 -0.237067
v 0.207104 -0.037707 -0.233959
v 0.204625 -0.037707 -0.231147
v 0.201813 -0.037707 -0.228667
v 0.198704 -0.037707 -0.226557
v 0.195336 -0.037707 -0.224853
v 0.191743 -0.037707 -0.223591
v 0.187963 -0.037707 -0.222807
v 0.184032 -0.037707 -0.222537
v 0.123422 -0.037707 0.070591
v 0.060609 -0.037707 0.070591
v -0.017081 -0.037707 -0.018119
v -0.090363 -0.037707 0.070591
v -0.152074 -0.037707 0.070591
v -0.047936 -0.037707 -0.055035
v -0.152074 -0.037707 -0.176805
v -0.090363 -0.037707 -0.176805
v -0.017081 -0.037707 -0.091952
v 0.053446 -0.037707 -0.176805
v 0.116259 -0.037707 -0.176805
v 0.014326 -0.037707 -0.055035
v -0.332249 -0.037707 -0.256699
v -0.332249 -0.037707 -0.143194
v -0.178522 -0.037707 -0.143194
v -0.178522 -0.037707 -0.094707
v -0.332249 -0.037707 -0.094707
v -0.332249 -0.037707 0.022104
v -0.168053 -0.037707 0.022104
v -0.168053 -0.037707 0.070591
v -0.386246 -0.037707 0.070591
v -0.386246 -0.037707 -0.305186
v -0.173012 -0.037707 -0.305186
v -0.173012 -0.037707 -0.256699
v -0.332249 -0.037707 -0.256699
v -0.332249 0.037707 -0.256699
v -0.332249 -0.037707 -0.143194
v -0.332249 0.037707 -0.143194
v -0.178522 -0.037707 -0.143194
v -0.178522 0.037707 -0.143194
v -0.178522 -0.037707 -0.094707
v -0.178522 0.037707 -0.094707
v -0.332249 -0.037707 -0.094707
v -0.332249 0.037707 -0.094707
v -0.332249 -0.037707 0.022104
v -0.332249 0.037707 0.022104
v -0.168053 -0.037707 0.022104
v -0.168053 0.037707 0.022104
v -0.168053 -0.037707 0.070591
v -0.168053 0.037707 0.070591
v -0.386246 -0.037707 0.070591
v -0.386246 0.037707 0.070591
v -0.386246 -0.037707 -0.305186
v -0.386246 0.037707 -0.305186
v -0.173012 -0.037707 -0.305186
v -0.173012 0.037707 -0.305186
v -0.173012 -0.037707 -0.256699
v -0.173012 0.037707 -0.256699
v 0.123422 -0.037707 0.070591
v 0.123422 0.037707 0.070591
v 0.060609 -0.037707 0.070591
v 0.060609 0.037707 0.070591
v -0.017081 -0.037707 -0.018119
v -0.017081 0.037707 -0.018119
v -0.090363 -0.037707 0.070591
v -0.090363 0.037707 0.070591
v -0.152074 -0.037707 0.070591
v -0.152074 0.037707 0.070591
v -0.047936 -0.037707 -0.055035
v -0.047936 0.037707 -0.055035
v -0.152074 -0.037707 -0.176805
v -0.152074 0.037707 -0.176805
v -0.090363 -0.037707 -0.176805
v -0.090363 0.037707 -0.176805
v -0.017081 -0.037707 -0.091952
v -0.017081 0.037707 -0.091952
v 0.053446 -0.037707 -0.176805
v 0.053446 0.037707 -0.176805
v 0.116259 -0.037707 -0.176805
v 0.116259 0.037707 -0.176805
v 0.014326 -0.037707 -0.055035
v 0.014326 0.037707 -0.055035
v 0.159237 -0.037707 0.070591
v 0.159237 0.037707 0.070591
v 0.159237 -0.037707 -0.176805
v 0.159237 0.037707 -0.176805
v 0.208275 -0.037707 -0.176805
v 0.208275 0.037707 -0.176805
v 0.208275 -0.037707 0.070591
v 0.208275 0.037707 0.070591
v 0.180100 -0.037707 -0.222807
v 0.180100 0.037707 -0.222807
v 0.176320 -0.037707 -0.223591
v 0.176320 0.037707 -0.223591
v 0.172728 -0.037707 -0.224853
v 0.172728 0.037707 -0.224853
v 0.169359 -0.037707 -0.226557
v 0.169359 0.037707 -0.226557
v 0.166250 -0.037707 -0.228667
v 0.166250 0.037707 -0.228667
v 0.163438 -0.037707 -0.231147
v 0.163438 0.037707 -0.231147
v 0.160959 -0.037707 -0.233959
v 0.160959 0.037707 -0.233959
v 0.158849 -0.037707 -0.237067
v 0.158849 0.037707 -0.237067
v 0.157145 -0.037707 -0.240436
v 0.157145 0.037707 -0.240436
v 0.155882 -0.037707 -0.244029
v 0.155882 0.037707 -0.244029
v 0.155098 -0.037707 -0.247809
v 0.155098 0.037707 -0.247809
v 0.154829 -0.037707 -0.251740
v 0.154829 0.037707 -0.251740
v 0.155098 -0.037707 -0.255671
v 0.155098 0.037707 -0.255671
v 0.155883 -0.037707 -0.259451
v 0.155883 0.037707 -0.259451
v 0.157145 -0.037707 -0.263044
v 0.157145 0.037707 -0.263044
v 0.158849 -0.037707 -0.266413
v 0.158849 0.037707 -0.266413
v 0.160959 -0.037707 -0.269521
v 0.160959 0.037707 -0.269521
v 0.163438 -0.037707 -0.272333
v 0.163438 0.037707 -0.272333
v 0.166250 -0.037707 -0.274812
v 0.166250 0.037707 -0.274812
v 0.169359 -0.037707 -0.276922
v 0.169359 0.037707 -0.276922
v 0.172728 -0.037707 -0.278627
v 0.172728 0.037707 -0.278627
v 0.176320 -0.037707 -0.279889
v 0.176320 0.037707 -0.279889
v 0.180100 -0.037707 -0.280673
v 0.180100 0.037707 -0.280673
v 0.184032 -0.037707 -0.280942
v 0.184032 0.037707 -0.280942
v 0.187963 -0.037707 -0.280673
v 0.187963 0.037707 -0.280673
v 0.191743 -0.037707 -0.279889
v 0.191743 0.037707 -0.279889
v 0.195336 -0.037707 -0.278627
v 0.195336 0.037707 -0.278627
v 0.198704 -0.037707 -0.276922
v 0.198704 0.037707 -0.276922
v 0.201813 -0.037707 -0.274812
v 0.201813 0.037707 -0.274812
v 0.204625 -0.037707 -0.272333
v 0.204625 0.037707 -0.272333
v 0.207104 -0.037707 -0.269521
v 0.207104 0.037707 -0.269521
v 0.209214 -0.037707 -0.266413
v 0.209214 0.037707 -0.266413
v 0.210918 -0.037707 -0.263044
v 0.210918 0.037707 -0.263044
v 0.212181 -0.037707 -0.259451
v 0.212181 0.037707 -0.259451
v 0.212965 -0.037707 -0.255671
v 0.212965 0.037707 -0.255671
v 0.213234 -0.037707 -0.251740
v 0.213234 0.037707 -0.251740
v 0.212965 -0.037707 -0.247809
v 0.212965 0.037707 -0.247809
v 0.212181 -0.037707 -0.244029
v 0.212181 0.037707 -0.244029
v 0.210918 -0.037707 -0.240436
v 0.210918 0.037707 -0.240436
v 0.209214 -0.037707 -0.237067
v 0.209214 0.037707 -0.237067
v 0.207104 -0.037707 -0.233959
v 0.207104 0.037707 -0.233959
v 0.204625 -0.037707 -0.231147
v 0.204625 0.037707 -0.231147
v 0.201813 -0.037707 -0.228667
v 0.201813 0.037707 -0.228667
v 0.198704 -0.037707 -0.226557
v 0.198704 0.037707 -0.226557
v 0.195336 -0.037707 -0.224853
v 0.195336 0.037707 -0.224853
v 0.191743 -0.037707 -0.223591
v 0.191743 0.037707 -0.223591
v 0.187963 -0.037707 -0.222807
v 0.187963 0.037707 -0.222807
v 0.184032 -0.037707 -0.222537
v 0.184032 0.037707 -0.222537
v 0.414347 -0.037707 -0.176805
v 0.414347 0.037707 -0.176805
v 0.414347 -0.037707 -0.132725
v 0.414347 0.037707 -0.132725
v 0.336106 -0.037707 -0.132725
v 0.336106 0.037707 -0.132725
v 0.336106 -0.037707 -0.005997
v 0.336106 0.037707 -0.005997
v 0.336526 -0.037707 0.000875
v 0.336526 0.037707 0.000875
v 0.337723 -0.037707 0.006918
v 0.337723 0.037707 0.006918
v 0.339601 -0.037707 0.012177
v 0.339601 0.037707 0.012177
v 0.342064 -0.037707 0.016696
v 0.342064 0.037707 0.016696
v 0.345018 -0.037707 0.020518
v 0.345018 0.037707 0.020518
v 0.348365 -0.037707 0.023688
v 0.348365 0.037707 0.023688
v 0.352011 -0.037707 0.026249
v 0.352011 0.037707 0.026249
v 0.355860 -0.037707 0.028246
v 0.355860 0.037707 0.028246
v 0.359816 -0.037707 0.029723
v 0.359816 0.037707 0.029723
v 0.363783 -0.037707 0.030723
v 0.363783 0.037707 0.030723
v 0.367666 -0.037707 0.031291
v 0.367666 0.037707 0.031291
v 0.371369 -0.037707 0.031470
v 0.371369 0.037707 0.031470
v 0.375789 -0.037707 0.031344
v 0.375789 0.037707 0.031344
v 0.380236 -0.037707 0.030965
v 0.380236 0.037707 0.030965
v 0.384714 -0.037707 0.030334
v 0.384714 0.037707 0.030334
v 0.389225 -0.037707 0.029450
v 0.389225 0.037707 0.029450
v 0.393776 -0.037707 0.028314
v 0.393776 0.037707 0.028314
v 0.398368 -0.037707 0.026925
v 0.398368 0.037707 0.026925
v 0.403006 -0.037707 0.025283
v 0.403006 0.037707 0.025283
v 0.407694 -0.037707 0.023389
v 0.407694 0.037707 0.023389
v 0.412435 -0.037707 0.021243
v 0.412435 0.037707 0.021243
v 0.417234 -0.037707 0.018844
v 0.417234 0.037707 0.018844
v 0.422094 -0.037707 0.016192
v 0.422094 0.037707 0.016192
v 0.427019 -0.037707 0.013288
v 0.427019 0.037707 0.013288
v 0.427019 -0.037707 0.059020
v 0.427019 0.037707 0.059020
v 0.422566 -0.037707 0.061313
v 0.422566 0.037707 0.061313
v 0.417790 -0.037707 0.063497
v 0.417790 0.037707 0.063497
v 0.412763 -0.037707 0.065555
v 0.412763 0.037707 0.065555
v 0.407551 -0.037707 0.067469
v 0.407551 0.037707 0.067469
v 0.402225 -0.037707 0.069222
v 0.402225 0.037707 0.069222
v 0.396853 -0.037707 0.070798
v 0.396853 0.037707 0.070798
v 0.391503 -0.037707 0.072178
v 0.391503 0.037707 0.072178
v 0.386246 -0.037707 0.073346
v 0.386246 0.037707 0.073346
v 0.381149 -0.037707 0.074284
v 0.381149 0.037707 0.074284
v 0.376282 -0.037707 0.074976
v 0.376282 0.037707 0.074976
v 0.371714 -0.037707 0.075404
v 0.371714 0.037707 0.075404
v 0.367512 -0.037707 0.075550
v 0.367512 0.037707 0.075550
v 0.354702 -0.037707 0.074874
v 0.354702 0.037707 0.074874
v 0.342996 -0.037707 0.072894
v 0.342996 0.037707 0.072894
v 0.332395 -0.037707 0.069687
v 0.332395 0.037707 0.069687
v 0.322902 -0.037707 0.065326
v 0.322902 0.037707 0.065326
v 0.314519 -0.037707 0.059886
v 0.314519 0.037707 0.059886
v 0.307247 -0.037707 0.053441
v 0.307247 0.037707 0.053441
v 0.301089 -0.037707 0.046067
v 0.301089 0.037707 0.046067
v 0.296046 -0.037707 0.037837
v 0.296046 0.037707 0.037837
v 0.292121 -0.037707 0.028827
v 0.292121 0.037707 0.028827
v 0.289315 -0.037707 0.019111
v 0.289315 0.037707 0.019111
v 0.287629 -0.037707 0.008764
v 0.287629 0.037707 0.008764
v 0.287067 -0.037707 -0.002140
v 0.287067 0.037707 -0.002140
v 0.287067 -0.037707 -0.132725
v 0.287067 0.037707 -0.132725
v 0.244090 -0.037707 -0.132725
v 0.244090 0.037707 -0.132725
v 0.244090 -0.037707 -0.138235
v 0.244090 0.037707 -0.138235
v 0.336106 -0.037707 -0.228047
v 0.336106 0.037707 -0.228047
v 0.336106 -0.037707 -0.176805
v 0.336106 0.037707 -0.176805
vt 0.964912 0.000000
vt 1.000000 0.000000
vt 0.982456 0.000000
vt 0.000000 0.000000
vt 0.017544 0.000000
vt 0.947368 0.000000
vt 0.929825 0.000000
vt 0.912281 0.000000
vt 0.035088 0.000000
vt 0.052632 0.000000
vt 0.070175 0.000000
vt 0.894737 0.000000
vt 0.087719 0.000000
vt 0.105263 0.000000
vt 0.877193 0.000000
vt 0.122807 0.000000
vt 0.456140 0.000000
vt 0.491228 0.000000
vt 0.473684 0.000000
vt 0.438596 0.000000
vt 0.140351 0.000000
vt 0.421053 0.000000
vt 0.859649 0.000000
vt 0.157895 0.000000
vt 0.403509 0.000000
vt 0.385965 0.000000
vt 0.175439 0.000000
vt 0.368421 0.000000
vt 0.192982 0.000000
vt 0.350877 0.000000
vt 0.210526 0.000000
vt 0.333333 0.000000
vt 0.842105 0.000000
vt 0.315789 0.000000
vt 0.228070 0.000000
vt 0.298246 0.000000
vt 0.245614 0.000000
vt 0.280702 0.000000
vt 0.263158 0.000000
vt 0.824561 0.000000
vt 0.807018 0.000000
vt 0.789474 0.000000
vt 0.508772 0.000000
vt 0.771930 0.000000
vt 0.526316 0.000000
vt 0.543860 0.000000
vt 0.754386 0.000000
vt 0.561404 0.000000
vt 0.578947 0.000000
vt 0.596491 0.000000
vt 0.736842 0.000000
vt 0.614035 0.000000
vt 0.631579 0.000000
vt 0.719298 0.000000
vt 0.649123 0.000000
vt 0.666667 0.000000
vt 0.701754 0.000000
vt 0.684211 0.000000
vt 0.509804 0.000000
vt 0.549020 0.000000
vt 0.529412 0.000000
vt 0.568627 0.000000
vt 0.490196 0.000000
vt 0.588235 0.000000
vt 0.470588 0.000000
vt 0.607843 0.000000
vt 0.450980 0.000000
vt 0.627451 0.000000
vt 0.431373 0.000000
vt 0.647059 0.000000
vt 0.411765 0.000000
vt 0.666667 0.000000
vt 0.392157 0.000000
vt 0.686275 0.000000
vt 0.372549 0.000000
vt 0.705882 0.000000
vt 0.352941 0.000000
vt 0.725490 0.000000
vt 0.333333 0.000000
vt 0.745098 0.000000
vt 0.313726 0.000000
vt 0.764706 0.000000
vt 0.294118 0.000000
vt 0.274510 0.000000
vt 0.784314 0.000000
vt 0.803922 0.000000
vt 0.254902 0.000000
vt 0.823529 0.000000
vt 0.235294 0.000000
vt 0.843137 0.000000
vt 0.215686 0.000000
vt 0.862745 0.000000
vt 0.196078 0.000000
vt 0.882353 0.000000
vt 0.176471 0.000000
vt 0.901961 0.000000
vt 0.156863 0.000000
vt 0.921569 0.000000
vt 0.137255 0.000000
vt 0.941176 0.000000
vt 0.117647 0.000000
vt 0.960784 0.000000
vt 0.098039 0.000000
vt 0.980392 0.000000
vt 0.078431 0.000000
vt 1.000000 0.000000
vt 0.000000 0.000000
vt 0.039216 0.000000
vt 0.019608 0.000000
vt 0.058824 0.000000
vt 0.454545 0.000000
vt 0.636364 0.000000
vt 0.545455 0.000000
vt 0.727273 0.000000
vt 0.909091 0.000000
vt 0.818182 0.000000
vt 1.000000 0.000000
vt 0.363636 0.000000
vt 0.181818 0.000000
vt 0.000000 0.000000
vt 0.272727 0.000000
vt 0.090909 0.000000
vt 0.727273 0.000000
vt 0.000000 0.000000
vt 0.818182 0.000000
vt 0.909091 0.000000
vt 1.000000 0.000000
vt 0.090909 0.000000
vt 0.363636 0.000000
vt 0.181818 0.000000
vt 0.272727 0.000000
vt 0.454545 0.000000
vt 0.545455 0.000000
vt 0.636364 0.000000
vt 1.000000 0.000000
vt 0.964912 0.000000
vt 0.982456 0.000000
vt 0.000000 0.000000
vt 0.017544 0.000000
vt 0.947368 0.000000
vt 0.929825 0.000000
vt 0.035088 0.000000
vt 0.912281 0.000000
vt 0.052632 0.000000
vt 0.070175 0.000000
vt 0.894737 0.000000
vt 0.087719 0.000000
vt 0.105263 0.000000
vt 0.877193 0.000000
vt 0.122807 0.000000
vt 0.491228 0.000000
vt 0.456140 0.000000
vt 0.473684 0.000000
vt 0.438596 0.000000
vt 0.140351 0.000000
vt 0.421053 0.000000
vt 0.859649 0.000000
vt 0.157895 0.000000
vt 0.403509 0.000000
vt 0.385965 0.000000
vt 0.175439 0.000000
vt 0.368421 0.000000
vt 0.192982 0.000000
vt 0.350877 0.000000
vt 0.210526 0.000000
vt 0.333333 0.000000
vt 0.842105 0.000000
vt 0.315789 0.000000
vt 0.228070 0.000000
vt 0.298246 0.000000
vt 0.245614 0.000000
vt 0.280702 0.000000
vt 0.263158 0.000000
vt 0.824561 0.000000
vt 0.807018 0.000000
vt 0.789474 0.000000
vt 0.508772 0.000000
vt 0.771930 0.000000
vt 0.526316 0.000000
vt 0.543860 0.000000
vt 0.754386 0.000000
vt 0.561404 0.000000
vt 0.578947 0.000000
vt 0.596491 0.000000
vt 0.736842 0.000000
vt 0.614035 0.000000
vt 0.631579 0.000000
vt 0.719298 0.000000
vt 0.649123 0.000000
vt 0.666667 0.000000
vt 0.701754 0.000000
vt 0.684211 0.000000
vt 0.549020 0.000000
vt 0.509804 0.000000
vt 0.529412 0.000000
vt 0.568627 0.000000
vt 0.490196 0.000000
vt 0.588235 0.000000
vt 0.470588 0.000000
vt 0.607843 0.000000
vt 0.450980 0.000000
vt 0.627451 0.000000
vt 0.431373 0.000000
vt 0.647059 0.000000
vt 0.411765 0.000000
vt 0.666667 0.000000
vt 0.392157 0.000000
vt 0.686275 0.000000
vt 0.372549 0.000000
vt 0.705882 0.000000
vt 0.352941 0.000000
vt 0.725490 0.000000
vt 0.333333 0.000000
vt 0.745098 0.000000
vt 0.313726 0.000000
vt 0.764706 0.000000
vt 0.294118 0.000000
vt 0.274510 0.000000
vt 0.784314 0.000000
vt 0.803922 0.000000
vt 0.254902 0.000000
vt 0.823529 0.000000
vt 0.235294 0.000000
vt 0.843137 0.000000
vt 0.215686 0.000000
vt 0.862745 0.000000
vt 0.196078 0.000000
vt 0.882353 0.000000
vt 0.176471 0.000000
vt 0.901961 0.000000
vt 0.156863 0.000000
vt 0.921569 0.000000
vt 0.137255 0.000000
vt 0.941176 0.000000
vt 0.117647 0.000000
vt 0.960784 0.000000
vt 0.098039 0.000000
vt 0.980392 0.000000
vt 0.078431 0.000000
vt 1.000000 0.000000
vt 0.039216 0.000000
vt 0.000000 0.000000
vt 0.019608 0.000000
vt 0.058824 0.000000
vt 0.636364 0.000000
vt 0.454545 0.000000
vt 0.545455 0.000000
vt 0.727273 0.000000
vt 0.909091 0.000000
vt 0.818182 0.000000
vt 1.000000 0.000000
vt 0.363636 0.000000
vt 0.181818 0.000000
vt 0.000000 0.000000
vt 0.272727 0.000000
vt 0.090909 0.000000
vt 0.000000 0.000000
vt 0.727273 0.000000
vt 0.818182 0.000000
vt 0.909091 0.000000
vt 1.000000 0.000000
vt 0.090909 0.000000
vt 0.363636 0.000000
vt 0.181818 0.000000
vt 0.272727 0.000000
vt 0.454545 0.000000
vt 0.545455 0.000000
vt 0.636364 0.000000
vt 0.083333 1.000000
vt 0.000000 0.000000
vt 0.000000 1.000000
vt 0.166667 1.000000
vt 0.083333 0.000000
vt 0.250000 1.000000
vt 0.166667 0.000000
vt 0.333333 1.000000
vt 0.250000 0.000000
vt 0.416667 1.000000
vt 0.333333 0.000000
vt 0.500000 1.000000
vt 0.416667 0.000000
vt 0.583333 1.000000
vt 0.500000 0.000000
vt 0.666667 1.000000
vt 0.583333 0.000000
vt 0.750000 1.000000
vt 0.666667 0.000000
vt 0.833333 1.000000
vt 0.750000 0.000000
vt 0.916667 1.000000
vt 0.833333 0.000000
vt 1.000000 1.000000
vt 0.916667 0.000000
vt 0.083333 1.000000
vt 0.000000 0.000000
vt 0.000000 1.000000
vt 0.166667 1.000000
vt 0.083333 0.000000
vt 0.250000 1.000000
vt 0.166667 0.000000
vt 0.333333 1.000000
vt 0.250000 0.000000
vt 0.416667 1.000000
vt 0.333333 0.000000
vt 0.500000 1.000000
vt 0.416667 0.000000
vt 0.583333 1.000000
vt 0.500000 0.000000
vt 0.666667 1.000000
vt 0.583333 0.000000
vt 0.750000 1.000000
vt 0.666667 0.000000
vt 0.833333 1.000000
vt 0.750000 0.000000
vt 0.916667 1.000000
vt 0.833333 0.000000
vt 1.000000 1.000000
vt 0.916667 0.000000
vt 0.250000 1.000000
vt 0.000000 0.000000
vt 0.000000 1.000000
vt 0.500000 1.000000
vt 0.250000 0.000000
vt 0.750000 1.000000
vt 0.500000 0.000000
vt 1.000000 1.000000
vt 0.750000 0.000000
vt 0.020833 1.000000
vt 0.000000 0.000000
vt 0.000000 1.000000
vt 0.041667 1.000000
vt 0.020833 0.000000
vt 0.062500 1.000000
vt 0.041667 0.000000
vt 0.083333 1.000000
vt 0.062500 0.000000
vt 0.104167 1.000000
vt 0.083333 0.000000
vt 0.125000 1.000000
vt 0.104167 0.000000
vt 0.145833 1.000000
vt 0.125000 0.000000
vt 0.166667 1.000000
vt 0.145833 0.000000
vt 0.187500 1.000000
vt 0.166667 0.000000
vt 0.208333 1.000000
vt 0.187500 0.000000
vt 0.229167 1.000000
vt 0.208333 0.000000
vt 0.250000 1.000000
vt 0.229167 0.000000
vt 0.270833 1.000000
vt 0.250000 0.000000
vt 0.291667 1.000000
vt 0.270833 0.000000
vt 0.312500 1.000000
vt 0.291667 0.000000
vt 0.333333 1.000000
vt 0.312500 0.000000
vt 0.354167 1.000000
vt 0.333333 0.000000
vt 0.375000 1.000000
vt 0.354167 0.000000
vt 0.395833 1.000000
vt 0.375000 0.000000
vt 0.416667 1.000000
vt 0.395833 0.000000
vt 0.437500 1.000000
vt 0.416667 0.000000
vt 0.458333 1.000000
vt 0.437500 0.000000
vt 0.479167 1.000000
vt 0.458333 0.000000
vt 0.500000 1.000000
vt 0.479167 0.000000
vt 0.520833 1.000000
vt 0.500000 0.000000
vt 0.541667 1.000000
vt 0.520833 0.000000
vt 0.562500 1.000000
vt 0.541667 0.000000
vt 0.583333 1.000000
vt 0.562500 0.000000
vt 0.604167 1.000000
vt 0.583333 0.000000
vt 0.625000 1.000000
vt 0.604167 0.000000
vt 0.645833 1.000000
vt 0.625000 0.000000
vt 0.666667 1.000000
vt 0.645833 0.000000
vt 0.687500 1.000000
vt 0.666667 0.000000
vt 0.708333 1.000000
vt 0.687500 0.000000
vt 0.729167 1.000000
vt 0.708333 0.000000
vt 0.750000 1.000000
vt 0.729167 0.000000
vt 0.770833 1.000000
vt 0.750000 0.000000
vt 0.791667 1.000000
vt 0.770833 0.000000
vt 0.812500 1.000000
vt 0.791667 0.000000
vt 0.833333 1.000000
vt 0.812500 0.000000
vt 0.854167 1.000000
vt 0.833333 0.000000
vt 0.875000 1.000000
vt 0.854167 0.000000
vt 0.895833 1.000000
vt 0.875000 0.000000
vt 0.916667 1.000000
vt 0.895833 0.000000
vt 0.937500 1.000000
vt 0.916667 0.000000
vt 0.958333 1.000000
vt 0.937500 0.000000
vt 0.979167 1.000000
vt 0.958333 0.000000
vt 1.000000 1.000000
vt 0.979167 0.000000
vt 0.017241 1.000000
vt 0.000000 0.000000
vt 0.000000 1.000000
vt 0.034483 1.000000
vt 0.017241 0.000000
vt 0.051724 1.000000
vt 0.034483 0.000000
vt 0.068966 1.000000
vt 0.051724 0.000000
vt 0.086207 1.000000
vt 0.068966 0.000000
vt 0.103448 1.000000
vt 0.086207 0.000000
vt 0.120690 1.000000
vt 0.103448 0.000000
vt 0.137931 1.000000
vt 0.120690 0.000000
vt 0.155172 1.000000
vt 0.137931 0.000000
vt 0.172414 1.000000
vt 0.155172 0.000000
vt 0.189655 1.000000
vt 0.172414 0.000000
vt 0.206897 1.000000
vt 0.189655 0.000000
vt 0.224138 1.000000
vt 0.206897 0.000000
vt 0.241379 1.000000
vt 0.224138 0.000000
vt 0.258621 1.000000
vt 0.241379 0.000000
vt 0.275862 1.000000
vt 0.258621 0.000000
vt 0.293103 1.000000
vt 0.275862 0.000000
vt 0.310345 1.000000
vt 0.293103 0.000000
vt 0.327586 1.000000
vt 0.310345 0.000000
vt 0.344828 1.000000
vt 0.327586 0.000000
vt 0.362069 1.000000
vt 0.344828 0.000000
vt 0.379310 1.000000
vt 0.362069 0.000000
vt 0.396552 1.000000
vt 0.379310 0.000000
vt 0.413793 1.000000
vt 0.396552 0.000000
vt 0.431034 1.000000
vt 0.413793 0.000000
vt 0.448276 1.000000
vt 0.431034 0.000000
vt 0.465517 1.000000
vt 0.448276 0.000000
vt 0.482759 1.000000
vt 0.465517 0.000000
vt 0.500000 1.000000
vt 0.482759 0.000000
vt 0.517241 1.000000
vt 0.500000 0.000000
vt 0.534483 1.000000
vt 0.517241 0.000000
vt 0.551724 1.000000
vt 0.534483 0.000000
vt 0.568965 1.000000
vt 0.551724 0.000000
vt 0.586207 1.000000
vt 0.568965 0.000000
vt 0.603448 1.000000
vt 0.586207 0.000000
vt 0.620690 1.000000
vt 0.603448 0.000000
vt 0.637931 1.000000
vt 0.620690 0.000000
vt 0.655172 1.000000
vt 0.637931 0.000000
vt 0.672414 1.000000
vt 0.655172 0.000000
vt 0.689655 1.000000
vt 0.672414 0.000000
vt 0.706897 1.000000
vt 0.689655 0.000000
vt 0.724138 1.000000
vt 0.706897 0.000000
vt 0.741379 1.000000
vt 0.724138 0.000000
vt 0.758621 1.000000
vt 0.741379 0.000000
vt 0.775862 1.000000
vt 0.758621 0.000000
vt 0.793103 1.000000
vt 0.775862 0.000000
vt 0.810345 1.000000
vt 0.793103 0.000000
vt 0.827586 1.000000
vt 0.810345 0.000000
vt 0.844828 1.000000
vt 0.827586 0.000000
vt 0.862069 1.000000
vt 0.844828 0.000000
vt 0.879310 1.000000
vt 0.862069 0.000000
vt 0.896552 1.000000
vt 0.879310 0.000000
vt 0.913793 1.000000
vt 0.896552 0.000000
vt 0.931035 1.000000
vt 0.913793 0.000000
vt 0.948276 1.000000
vt 0.931035 0.000000
vt 0.965517 1.000000
vt 0.948276 0.000000
vt 0.982759 1.000000
vt 0.965517 0.000000
vt 1.000000 1.000000
vt 0.982759 0.000000
vt 1.000000 0.000000
vt 1.000000 0.000000
vt 1.000000 0.000000
vt 1.000000 0.000000
vt 1.000000 0.000000
vn 0.0000 1.0000 0.0000
vn 0.0000 0.0000 1.0000
vn 0.0000 -1.0000 0.0000
vn 0.0000 0.0000 -1.0000
vn 0.0000 -1.0000 -0.0001
vn 0.7071 0.0000 -0.7071
vn 0.7071 0.0000 0.7071
vn -0.7071 0.0000 0.7071
vn -0.7071 0.0000 -0.7071
vn -0.4130 0.0000 0.9107
vn 0.9098 0.0000 0.4149
vn 0.0144 0.0000 0.9999
vn 0.4261 0.0000 0.9047
vn -0.9050 0.0000 0.4253
vn -1.0000 0.0000 0.0077
vn -0.9083 0.0000 -0.4183
vn 0.4162 0.0000 -0.9093
vn -0.0094 0.0000 -0.9999
vn -0.4247 0.0000 -0.9053
vn 0.9060 0.0000 -0.4231
vn 0.9999 0.0000 -0.0091
vn -0.2679 0.0000 0.9634
vn -0.1360 0.0000 0.9907
vn -0.1361 0.0000 0.9907
vn -0.3923 0.0000 0.9198
vn -0.5075 0.0000 0.8616
vn -0.6127 0.0000 0.7903
vn -0.7903 0.0000 0.6127
vn -0.8616 0.0000 0.5076
vn -0.9198 0.0000 0.3923
vn -0.8616 0.0000 0.5075
vn -0.9634 0.0000 0.2679
vn -0.9907 0.0000 0.1361
vn -1.0000 0.0000 0.0000
vn -0.9907 0.0000 -0.1361
vn -0.9634 0.0000 -0.2679
vn -0.9198 0.0000 -0.3923
vn -0.8616 0.0000 -0.5075
vn -0.7903 0.0000 -0.6127
vn -0.6127 0.0000 -0.7903
vn -0.5076 0.0000 -0.8616
vn -0.3923 0.0000 -0.9198
vn -0.5075 0.0000 -0.8616
vn -0.2679 0.0000 -0.9634
vn -0.1361 0.0000 -0.9907
vn 0.1360 0.0000 -0.9907
vn 0.2679 0.0000 -0.9634
vn 0.3923 0.0000 -0.9198
vn 0.5075 0.0000 -0.8616
vn 0.6127 0.0000 -0.7903
vn 0.5076 0.0000 -0.8616
vn 0.7903 0.0000 -0.6127
vn 0.8616 0.0000 -0.5075
vn 0.9198 0.0000 -0.3923
vn 0.9634 0.0000 -0.2679
vn 0.9907 0.0000 -0.1361
vn 1.0000 0.0000 0.0000
vn 0.9907 0.0000 0.1361
vn 0.9634 0.0000 0.2679
vn 0.9198 0.0000 0.3923
vn 0.8616 0.0000 0.5076
vn 0.7903 0.0000 0.6127
vn 0.8616 0.0000 0.5075
vn 0.6127 0.0000 0.7903
vn 0.5076 0.0000 0.8616
vn 0.3923 0.0000 0.9198
vn 0.2679 0.0000 0.9634
vn 0.1361 0.0000 0.9907
vn 0.9995 0.0000 -0.0305
vn 0.9918 0.0000 -0.1279
vn 0.9640 0.0000 -0.2660
vn 0.9126 0.0000 -0.4087
vn 0.8373 0.0000 -0.5467
vn 0.7417 0.0000 -0.6708
vn 0.6329 0.0000 -0.7742
vn 0.5189 0.0000 -0.8548
vn 0.4059 0.0000 -0.9139
vn 0.2975 0.0000 -0.9547
vn 0.1948 0.0000 -0.9808
vn 0.0967 0.0000 -0.9953
vn 0.0099 0.0000 -0.9999
vn -0.0567 0.0000 -0.9984
vn -0.1123 0.0000 -0.9937
vn -0.1660 0.0000 -0.9861
vn -0.2173 0.0000 -0.9761
vn -0.2660 0.0000 -0.9640
vn -0.3116 0.0000 -0.9502
vn -0.3542 0.0000 -0.9351
vn -0.3936 0.0000 -0.9193
vn -0.4299 0.0000 -0.9029
vn -0.4631 0.0000 -0.8863
vn -0.4935 0.0000 -0.8697
vn 0.4960 0.0000 -0.8683
vn 0.8537 0.0000 0.5207
vn 0.4369 0.0000 0.8995
vn 0.3974 0.0000 0.9176
vn 0.3618 0.0000 0.9322
vn 0.3288 0.0000 0.9444
vn 0.2971 0.0000 0.9548
vn 0.2657 0.0000 0.9640
vn 0.2334 0.0000 0.9724
vn 0.1990 0.0000 0.9800
vn 0.1609 0.0000 0.9869
vn 0.1169 0.0000 0.9931
vn 0.0640 0.0000 0.9979
vn -0.0089 0.0000 0.9999
vn -0.1099 0.0000 0.9939
vn -0.2286 0.0000 0.9735
vn -0.3544 0.0000 0.9351
vn -0.4822 0.0000 0.8761
vn -0.6055 0.0000 0.7958
vn -0.7174 0.0000 0.6966
vn -0.8123 0.0000 0.5833
vn -0.8868 0.0000 0.4621
vn -0.9407 0.0000 0.3392
vn -0.9756 0.0000 0.2195
vn -0.9943 0.0000 0.1063
vn -0.9997 0.0000 0.0257
vn -0.9215 0.0000 -0.3883
vn 0.3883 0.0000 -0.9215
usemtl Material.002
s off
f 56/1/1 58/2/1 57/3/1
f 56/1/1 1/4/1 58/2/1
f 56/1/1 2/5/1 1/4/1
f 55/6/1 2/5/1 56/1/1
f 54/7/2 2/5/2 55/6/2
f 53/8/1 3/9/1 54/7/1
f 3/9/2 2/5/2 54/7/2
f 53/8/1 4/10/1 3/9/1
f 53/8/1 5/11/1 4/10/1
f 52/12/1 5/11/1 53/8/1
f 52/12/1 6/13/1 5/11/1
f 52/12/1 7/14/1 6/13/1
f 51/15/1 7/14/1 52/12/1
f 51/15/1 8/16/1 7/14/1
f 27/17/1 29/18/1 28/19/1
f 26/20/1 29/18/1 27/17/1
f 51/15/1 9/21/1 8/16/1
f 25/22/1 29/18/1 26/20/1
f 50/23/1 9/21/1 51/15/1
f 50/23/1 10/24/1 9/21/1
f 24/25/1 29/18/1 25/22/1
f 23/26/1 29/18/1 24/25/1
f 50/23/1 11/27/1 10/24/1
f 22/28/1 29/18/1 23/26/1
f 50/23/1 12/29/1 11/27/1
f 21/30/1 29/18/1 22/28/1
f 50/23/1 13/31/1 12/29/1
f 20/32/1 29/18/1 21/30/1
f 49/33/1 13/31/1 50/23/1
f 19/34/1 29/18/1 20/32/1
f 49/33/1 14/35/1 13/31/1
f 18/36/1 29/18/1 19/34/1
f 49/33/1 15/37/1 14/35/1
f 17/38/1 29/18/1 18/36/1
f 49/33/1 16/39/1 15/37/1
f 16/39/1 29/18/1 17/38/1
f 49/33/1 29/18/1 16/39/1
f 48/40/1 29/18/1 49/33/1
f 47/41/1 29/18/1 48/40/1
f 46/42/1 29/18/1 47/41/1
f 46/42/1 30/43/1 29/18/1
f 45/44/1 30/43/1 46/42/1
f 45/44/1 31/45/1 30/43/1
f 45/44/1 32/46/1 31/45/1
f 44/47/1 32/46/1 45/44/1
f 44/47/1 33/48/1 32/46/1
f 44/47/1 34/49/1 33/48/1
f 44/47/1 35/50/1 34/49/1
f 43/51/1 35/50/1 44/47/1
f 43/51/1 36/52/1 35/50/1
f 43/51/1 37/53/1 36/52/1
f 42/54/1 37/53/1 43/51/1
f 42/54/1 38/55/1 37/53/1
f 42/54/1 39/56/1 38/55/1
f 41/57/1 39/56/1 42/54/1
f 41/57/1 40/58/1 39/56/1
f 85/59/1 87/60/1 86/61/1
f 85/59/1 88/62/1 87/60/1
f 84/63/1 88/62/1 85/59/1
f 84/63/1 89/64/1 88/62/1
f 83/65/1 89/64/1 84/63/1
f 83/65/1 90/66/1 89/64/1
f 82/67/1 90/66/1 83/65/1
f 82/67/1 91/68/1 90/66/1
f 81/69/1 91/68/1 82/67/1
f 81/69/1 92/70/1 91/68/1
f 80/71/1 92/70/1 81/69/1
f 80/71/1 93/72/1 92/70/1
f 79/73/1 93/72/1 80/71/1
f 79/73/1 94/74/1 93/72/1
f 78/75/1 94/74/1 79/73/1
f 78/75/1 95/76/1 94/74/1
f 77/77/1 95/76/1 78/75/1
f 77/77/1 96/78/1 95/76/1
f 76/79/1 96/78/1 77/77/1
f 76/79/1 97/80/1 96/78/1
f 75/81/1 97/80/1 76/79/1
f 75/81/1 98/82/1 97/80/1
f 74/83/1 98/82/1 75/81/1
f 73/84/1 98/82/1 74/83/1
f 73/84/1 99/85/1 98/82/1
f 73/84/1 100/86/1 99/85/1
f 72/87/1 100/86/1 73/84/1
f 72/87/1 101/88/1 100/86/1
f 71/89/1 101/88/1 72/87/1
f 71/89/1 102/90/1 101/88/1
f 70/91/1 102/90/1 71/89/1
f 70/91/1 103/92/1 102/90/1
f 69/93/1 103/92/1 70/91/1
f 69/93/1 104/94/1 103/92/1
f 68/95/1 104/94/1 69/93/1
f 68/95/1 105/96/1 104/94/1
f 67/97/1 105/96/1 68/95/1
f 67/97/1 106/98/1 105/96/1
f 66/99/1 106/98/1 67/97/1
f 66/99/1 107/100/1 106/98/1
f 65/101/1 107/100/1 66/99/1
f 65/101/1 108/102/1 107/100/1
f 64/103/1 108/102/1 65/101/1
f 64/103/1 109/104/1 108/102/1
f 63/105/1 109/104/1 64/103/1
f 63/105/1 110/106/1 109/104/1
f 59/107/1 61/108/1 60/109/1
f 59/107/1 62/110/1 61/108/1
f 116/111/1 118/112/1 117/113/1
f 116/111/1 119/114/1 118/112/1
f 119/114/1 121/115/1 120/116/1
f 119/114/1 122/117/1 121/115/1
f 116/111/1 122/117/1 119/114/1
f 115/118/1 122/117/1 116/111/1
f 115/118/1 113/119/1 122/117/1
f 113/119/1 111/120/1 122/117/1
f 115/118/1 114/121/1 113/119/1
f 112/122/1 111/120/1 113/119/1
f 131/123/1 123/124/1 132/125/1
f 123/124/1 133/126/1 132/125/1
f 123/124/1 134/127/1 133/126/1
f 131/123/1 124/128/1 123/124/1
f 131/123/1 127/129/1 124/128/1
f 127/129/1 125/130/1 124/128/1
f 127/129/1 126/131/1 125/130/1
f 131/123/1 128/132/1 127/129/1
f 131/123/1 129/133/1 128/132/1
f 131/123/1 130/134/1 129/133/1
f 192/135/3 190/136/3 191/137/3
f 135/138/3 190/136/3 192/135/3
f 136/139/3 190/136/3 135/138/3
f 136/139/3 189/140/3 190/136/3
f 136/139/2 188/141/2 189/140/2
f 137/142/3 187/143/3 188/141/3
f 136/139/4 137/142/4 188/141/4
f 138/144/3 187/143/3 137/142/3
f 139/145/3 187/143/3 138/144/3
f 139/145/3 186/146/3 187/143/3
f 140/147/3 186/146/3 139/145/3
f 141/148/3 186/146/3 140/147/3
f 141/148/3 185/149/3 186/146/3
f 142/150/3 185/149/3 141/148/3
f 163/151/3 161/152/3 162/153/3
f 163/151/3 160/154/3 161/152/3
f 143/155/3 185/149/3 142/150/3
f 163/151/3 159/156/3 160/154/3
f 143/155/3 184/157/3 185/149/3
f 144/158/3 184/157/3 143/155/3
f 163/151/3 158/159/3 159/156/3
f 163/151/3 157/160/3 158/159/3
f 145/161/3 184/157/3 144/158/3
f 163/151/3 156/162/3 157/160/3
f 146/163/3 184/157/3 145/161/3
f 163/151/3 155/164/3 156/162/3
f 147/165/3 184/157/3 146/163/3
f 163/151/3 154/166/3 155/164/3
f 147/165/3 183/167/3 184/157/3
f 163/151/3 153/168/3 154/166/3
f 148/169/3 183/167/3 147/165/3
f 163/151/3 152/170/3 153/168/3
f 149/171/3 183/167/3 148/169/3
f 163/151/3 151/172/3 152/170/3
f 150/173/3 183/167/3 149/171/3
f 163/151/3 150/173/3 151/172/3
f 163/151/3 183/167/3 150/173/3
f 163/151/3 182/174/3 183/167/3
f 163/151/3 181/175/3 182/174/3
f 163/151/3 180/176/3 181/175/3
f 164/177/3 180/176/3 163/151/3
f 164/177/3 179/178/3 180/176/3
f 165/179/3 179/178/3 164/177/3
f 166/180/3 179/178/3 165/179/3
f 166/180/3 178/181/3 179/178/3
f 167/182/3 178/181/3 166/180/3
f 168/183/3 178/181/3 167/182/3
f 169/184/3 178/181/3 168/183/3
f 169/184/3 177/185/3 178/181/3
f 170/186/3 177/185/3 169/184/3
f 171/187/3 177/185/3 170/186/3
f 171/187/3 176/188/3 177/185/3
f 172/189/3 176/188/3 171/187/3
f 173/190/3 176/188/3 172/189/3
f 173/190/3 175/191/3 176/188/3
f 174/192/5 175/191/5 173/190/5
f 221/193/3 219/194/3 220/195/3
f 222/196/3 219/194/3 221/193/3
f 222/196/3 218/197/3 219/194/3
f 223/198/3 218/197/3 222/196/3
f 223/198/3 217/199/3 218/197/3
f 224/200/3 217/199/3 223/198/3
f 224/200/3 216/201/3 217/199/3
f 225/202/3 216/201/3 224/200/3
f 225/202/3 215/203/3 216/201/3
f 226/204/3 215/203/3 225/202/3
f 226/204/3 214/205/3 215/203/3
f 227/206/3 214/205/3 226/204/3
f 227/206/3 213/207/3 214/205/3
f 228/208/3 213/207/3 227/206/3
f 228/208/3 212/209/3 213/207/3
f 229/210/3 212/209/3 228/208/3
f 229/210/3 211/211/3 212/209/3
f 230/212/3 211/211/3 229/210/3
f 230/212/3 210/213/3 211/211/3
f 231/214/3 210/213/3 230/212/3
f 231/214/3 209/215/3 210/213/3
f 232/216/3 209/215/3 231/214/3
f 232/216/3 208/217/3 209/215/3
f 232/216/3 207/218/3 208/217/3
f 233/219/3 207/218/3 232/216/3
f 234/220/3 207/218/3 233/219/3
f 234/220/3 206/221/3 207/218/3
f 235/222/3 206/221/3 234/220/3
f 235/222/3 205/223/3 206/221/3
f 236/224/3 205/223/3 235/222/3
f 236/224/3 204/225/3 205/223/3
f 237/226/3 204/225/3 236/224/3
f 237/226/3 203/227/3 204/225/3
f 238/228/3 203/227/3 237/226/3
f 238/228/3 202/229/3 203/227/3
f 239/230/3 202/229/3 238/228/3
f 239/230/3 201/231/3 202/229/3
f 240/232/3 201/231/3 239/230/3
f 240/232/3 200/233/3 201/231/3
f 241/234/3 200/233/3 240/232/3
f 241/234/3 199/235/3 200/233/3
f 242/236/3 199/235/3 241/234/3
f 242/236/3 198/237/3 199/235/3
f 243/238/3 198/237/3 242/236/3
f 243/238/3 197/239/3 198/237/3
f 244/240/3 197/239/3 243/238/3
f 195/241/3 193/242/3 194/243/3
f 196/244/3 193/242/3 195/241/3
f 252/245/3 250/246/3 251/247/3
f 253/248/3 250/246/3 252/245/3
f 255/249/3 253/248/3 254/250/3
f 256/251/3 253/248/3 255/249/3
f 256/251/3 250/246/3 253/248/3
f 256/251/3 249/252/3 250/246/3
f 247/253/3 249/252/3 256/251/3
f 245/254/3 247/253/3 256/251/3
f 248/255/3 249/252/3 247/253/3
f 245/254/3 246/256/3 247/253/3
f 257/257/3 265/258/3 266/259/3
f 267/260/3 257/257/3 266/259/3
f 268/261/3 257/257/3 267/260/3
f 258/262/3 265/258/3 257/257/3
f 261/263/3 265/258/3 258/262/3
f 259/264/3 261/263/3 258/262/3
f 260/265/3 261/263/3 259/264/3
f 262/266/3 265/258/3 261/263/3
f 263/267/3 265/258/3 262/266/3
f 264/268/3 265/258/3 263/267/3
s 1
f 272/269/6 269/270/7 270/271/7
f 274/272/6 271/273/6 272/269/6
f 276/274/7 273/275/6 274/272/6
f 278/276/7 275/277/7 276/274/7
f 280/278/6 277/279/7 278/276/7
f 282/280/6 279/281/6 280/278/6
f 284/282/7 281/283/6 282/280/6
f 286/284/8 283/285/7 284/282/7
f 288/286/9 285/287/8 286/284/8
f 290/288/6 287/289/9 288/286/9
f 292/290/7 289/291/6 290/288/6
f 270/292/7 291/293/7 292/290/7
f 296/294/10 293/295/11 294/296/11
f 298/297/12 295/298/10 296/294/10
f 300/299/13 297/300/12 298/297/12
f 302/301/14 299/302/13 300/299/13
f 304/303/15 301/304/14 302/301/14
f 306/305/16 303/306/15 304/303/15
f 308/307/17 305/308/16 306/305/16
f 310/309/18 307/310/17 308/307/17
f 312/311/19 309/312/18 310/309/18
f 314/313/20 311/314/19 312/311/19
f 316/315/21 313/316/20 314/313/20
f 294/317/11 315/318/21 316/315/21
f 320/319/9 317/320/8 318/321/8
f 322/322/6 319/323/9 320/319/9
f 324/324/7 321/325/6 322/322/6
f 318/326/8 323/327/7 324/324/7
f 328/328/22 325/329/23 326/330/24
f 330/331/25 327/332/22 328/328/22
f 332/333/26 329/334/25 330/331/25
f 334/335/27 331/336/26 332/333/26
f 336/337/8 333/338/27 334/335/27
f 338/339/28 335/340/8 336/337/8
f 340/341/29 337/342/28 338/339/28
f 342/343/30 339/344/31 340/341/29
f 344/345/32 341/346/30 342/343/30
f 346/347/33 343/348/32 344/345/32
f 348/349/34 345/350/33 346/347/33
f 350/351/35 347/352/34 348/349/34
f 352/353/36 349/354/35 350/351/35
f 354/355/37 351/356/36 352/353/36
f 356/357/38 353/358/37 354/355/37
f 358/359/39 355/360/38 356/357/38
f 360/361/9 357/362/39 358/359/39
f 362/363/40 359/364/9 360/361/9
f 364/365/41 361/366/40 362/363/40
f 366/367/42 363/368/43 364/365/41
f 368/369/44 365/370/42 366/367/42
f 370/371/45 367/372/44 368/369/44
f 372/373/4 369/374/45 370/371/45
f 374/375/46 371/376/4 372/373/4
f 376/377/47 373/378/46 374/375/46
f 378/379/48 375/380/47 376/377/47
f 380/381/49 377/382/48 378/379/48
f 382/383/50 379/384/51 380/381/49
f 384/385/6 381/386/50 382/383/50
f 386/387/52 383/388/6 384/385/6
f 388/389/53 385/390/52 386/387/52
f 390/391/54 387/392/53 388/389/53
f 392/393/55 389/394/54 390/391/54
f 394/395/56 391/396/55 392/393/55
f 396/397/57 393/398/56 394/395/56
f 398/399/58 395/400/57 396/397/57
f 400/401/59 397/402/58 398/399/58
f 402/403/60 399/404/59 400/401/59
f 404/405/61 401/406/60 402/403/60
f 406/407/62 403/408/63 404/405/61
f 408/409/7 405/410/62 406/407/62
f 410/411/64 407/412/7 408/409/7
f 412/413/65 409/414/64 410/411/64
f 414/415/66 411/416/65 412/413/65
f 416/417/67 413/418/66 414/415/66
f 418/419/68 415/420/67 416/417/67
f 420/421/2 417/422/68 418/419/68
f 326/423/24 419/424/2 420/421/2
f 424/425/7 421/426/6 422/427/6
f 426/428/7 423/429/7 424/425/7
f 428/430/69 425/431/7 426/428/7
f 430/432/70 427/433/69 428/430/69
f 432/434/71 429/435/70 430/432/70
f 434/436/72 431/437/71 432/434/71
f 436/438/73 433/439/72 434/436/72
f 438/440/74 435/441/73 436/438/73
f 440/442/75 437/443/74 438/440/74
f 442/444/76 439/445/75 440/442/75
f 444/446/77 441/447/76 442/444/76
f 446/448/78 443/449/77 444/446/77
f 448/450/79 445/451/78 446/448/78
f 450/452/80 447/453/79 448/450/79
f 452/454/81 449/455/80 450/452/80
f 454/456/82 451/457/81 452/454/81
f 456/458/83 453/459/82 454/456/82
f 458/460/84 455/461/83 456/458/83
f 460/462/85 457/463/84 458/460/84
f 462/464/86 459/465/85 460/462/85
f 464/466/87 461/467/86 462/464/86
f 466/468/88 463/469/87 464/466/87
f 468/470/89 465/471/88 466/468/88
f 470/472/90 467/473/89 468/470/89
f 472/474/91 469/475/90 470/472/90
f 474/476/92 471/477/91 472/474/91
f 476/478/93 473/479/92 474/476/92
f 478/480/94 475/481/93 476/478/93
f 480/482/95 477/483/94 478/480/94
f 482/484/96 479/485/95 480/482/95
f 484/486/97 481/487/96 482/484/96
f 486/488/98 483/489/97 484/486/97
f 488/490/99 485/491/98 486/488/98
f 490/492/100 487/493/99 488/490/99
f 492/494/101 489/495/100 490/492/100
f 494/496/102 491/497/101 492/494/101
f 496/498/103 493/499/102 494/496/102
f 498/500/104 495/501/103 496/498/103
f 500/502/105 497/503/104 498/500/104
f 502/504/106 499/505/105 500/502/105
f 504/506/107 501/507/106 502/504/106
f 506/508/108 503/509/107 504/506/107
f 508/510/109 505/511/108 506/508/108
f 510/512/110 507/513/109 508/510/109
f 512/514/111 509/515/110 510/512/110
f 514/516/112 511/517/111 512/514/111
f 516/518/113 513/519/112 514/516/112
f 518/520/114 515/521/113 516/518/113
f 520/522/115 517/523/114 518/520/114
f 522/524/116 519/525/115 520/522/115
f 524/526/117 521/527/116 522/524/116
f 526/528/118 523/529/117 524/526/117
f 528/530/8 525/531/118 526/528/118
f 530/532/8 527/533/8 528/530/8
f 532/534/119 529/535/8 530/532/8
f 534/536/120 531/537/119 532/534/119
f 536/538/6 533/539/120 534/536/120
f 422/540/6 535/541/6 536/538/6
f 272/269/6 271/273/6 269/270/7
f 274/272/6 273/275/6 271/273/6
f 276/274/7 275/277/7 273/275/6
f 278/276/7 277/279/7 275/277/7
f 280/278/6 279/281/6 277/279/7
f 282/280/6 281/283/6 279/281/6
f 284/282/7 283/285/7 281/283/6
f 286/284/8 285/287/8 283/285/7
f 288/286/9 287/289/9 285/287/8
f 290/288/6 289/291/6 287/289/9
f 292/290/7 291/293/7 289/291/6
f 270/292/7 269/542/7 291/293/7
f 296/294/10 295/298/10 293/295/11
f 298/297/12 297/300/12 295/298/10
f 300/299/13 299/302/13 297/300/12
f 302/301/14 301/304/14 299/302/13
f 304/303/15 303/306/15 301/304/14
f 306/305/16 305/308/16 303/306/15
f 308/307/17 307/310/17 305/308/16
f 310/309/18 309/312/18 307/310/17
f 312/311/19 311/314/19 309/312/18
f 314/313/20 313/316/20 311/314/19
f 316/315/21 315/318/21 313/316/20
f 294/317/11 293/543/11 315/318/21
f 320/319/9 319/323/9 317/320/8
f 322/322/6 321/325/6 319/323/9
f 324/324/7 323/327/7 321/325/6
f 318/326/8 317/544/8 323/327/7
f 328/328/22 327/332/22 325/329/23
f 330/331/25 329/334/25 327/332/22
f 332/333/26 331/336/26 329/334/25
f 334/335/27 333/338/27 331/336/26
f 336/337/8 335/340/8 333/338/27
f 338/339/28 337/342/28 335/340/8
f 340/341/29 339/344/31 337/342/28
f 342/343/30 341/346/30 339/344/31
f 344/345/32 343/348/32 341/346/30
f 346/347/33 345/350/33 343/348/32
f 348/349/34 347/352/34 345/350/33
f 350/351/35 349/354/35 347/352/34
f 352/353/36 351/356/36 349/354/35
f 354/355/37 353/358/37 351/356/36
f 356/357/38 355/360/38 353/358/37
f 358/359/39 357/362/39 355/360/38
f 360/361/9 359/364/9 357/362/39
f 362/363/40 361/366/40 359/364/9
f 364/365/41 363/368/43 361/366/40
f 366/367/42 365/370/42 363/368/43
f 368/369/44 367/372/44 365/370/42
f 370/371/45 369/374/45 367/372/44
f 372/373/4 371/376/4 369/374/45
f 374/375/46 373/378/46 371/376/4
f 376/377/47 375/380/47 373/378/46
f 378/379/48 377/382/48 375/380/47
f 380/381/49 379/384/51 377/382/48
f 382/383/50 381/386/50 379/384/51
f 384/385/6 383/388/6 381/386/50
f 386/387/52 385/390/52 383/388/6
f 388/389/53 387/392/53 385/390/52
f 390/391/54 389/394/54 387/392/53
f 392/393/55 391/396/55 389/394/54
f 394/395/56 393/398/56 391/396/55
f 396/397/57 395/400/57 393/398/56
f 398/399/58 397/402/58 395/400/57
f 400/401/59 399/404/59 397/402/58
f 402/403/60 401/406/60 399/404/59
f 404/405/61 403/408/63 401/406/60
f 406/407/62 405/410/62 403/408/63
f 408/409/7 407/412/7 405/410/62
f 410/411/64 409/414/64 407/412/7
f 412/413/65 411/416/65 409/414/64
f 414/415/66 413/418/66 411/416/65
f 416/417/67 415/420/67 413/418/66
f 418/419/68 417/422/68 415/420/67
f 420/421/2 419/424/2 417/422/68
f 326/423/24 325/545/23 419/424/2
f 424/425/7 423/429/7 421/426/6
f 426/428/7 425/431/7 423/429/7
f 428/430/69 427/433/69 425/431/7
f 430/432/70 429/435/70 427/433/69
f 432/434/71 431/437/71 429/435/70
f 434/436/72 433/439/72 431/437/71
f 436/438/73 435/441/73 433/439/72
f 438/440/74 437/443/74 435/441/73
f 440/442/75 439/445/75 437/443/74
f 442/444/76 441/447/76 439/445/75
f 444/446/77 443/449/77 441/447/76
f 446/448/78 445/451/78 443/449/77
f 448/450/79 447/453/79 445/451/78
f 450/452/80 449/455/80 447/453/79
f 452/454/81 451/457/81 449/455/80
f 454/456/82 453/459/82 451/457/81
f 456/458/83 455/461/83 453/459/82
f 458/460/84 457/463/84 455/461/83
f 460/462/85 459/465/85 457/463/84
f 462/464/86 461/467/86 459/465/85
f 464/466/87 463/469/87 461/467/86
f 466/468/88 465/471/88 463/469/87
f 468/470/89 467/473/89 465/471/88
f 470/472/90 469/475/90 467/473/89
f 472/474/91 471/477/91 469/475/90
f 474/476/92 473/479/92 471/477/91
f 476/478/93 475/481/93 473/479/92
f 478/480/94 477/483/94 475/481/93
f 480/482/95 479/485/95 477/483/94
f 482/484/96 481/487/96 479/485/95
f 484/486/97 483/489/97 481/487/96
f 486/488/98 485/491/98 483/489/97
f 488/490/99 487/493/99 485/491/98
f 490/492/100 489/495/100 487/493/99
f 492/494/101 491/497/101 489/495/100
f 494/496/102 493/499/102 491/497/101
f 496/498/103 495/501/103 493/499/102
f 498/500/104 497/503/104 495/501/103
f 500/502/105 499/505/105 497/503/104
f 502/504/106 501/507/106 499/505/105
f 504/506/107 503/509/107 501/507/106
f 506/508/108 505/511/108 503/509/107
f 508/510/109 507/513/109 505/511/108
f 510/512/110 509/515/110 507/513/109
f 512/514/111 511/517/111 509/515/110
f 514/516/112 513/519/112 511/517/111
f 516/518/113 515/521/113 513/519/112
f 518/520/114 517/523/114 515/521/113
f 520/522/115 519/525/115 517/523/114
f 522/524/116 521/527/116 519/525/115
f 524/526/117 523/529/117 521/527/116
f 526/528/118 525/531/118 523/529/117
f 528/530/8 527/533/8 525/531/118
f 530/532/8 529/535/8 527/533/8
f 532/534/119 531/537/119 529/535/8
f 534/536/120 533/539/120 531/537/119
f 536/538/6 535/541/6 533/539/120
f 422/540/6 421/546/6 535/541/6
