# Blender v2.92.0 OBJ File: 'hero.blend'
# www.blender.org
mtllib giant.mtl
o Cube.017
v 0.097666 0.059434 -0.004393
v 0.097666 -0.093316 -0.768146
v 0.097666 -0.093316 -0.004393
v 0.097666 0.059435 -0.768146
v 0.288604 -0.093316 -0.768146
v 0.288604 0.059435 -0.768146
v 0.288604 -0.093316 -0.004393
v 0.288604 0.059434 -0.004393
v -0.977941 0.999644 -0.037770
v 0.977030 0.999644 0.039592
v 0.977030 0.999644 -0.037770
v -0.977941 -0.955332 0.039591
v 0.977030 -0.955332 0.039591
v -0.977941 0.999644 0.039592
v -0.977941 -0.955332 -0.037771
v 0.977030 -0.955332 -0.037771
v -0.289514 0.059434 -0.004393
v -0.289514 -0.093316 -0.768146
v -0.289514 -0.093316 -0.004393
v -0.289514 0.059435 -0.768146
v -0.098576 -0.093316 -0.768146
v -0.098576 0.059435 -0.768146
v -0.098576 -0.093316 -0.004393
v -0.098576 0.059434 -0.004393
v -0.339824 0.149751 -0.648204
v -0.339824 -0.226886 -1.323457
v -0.339824 -0.226886 -0.648205
v -0.339824 0.149751 -1.323456
v 0.338914 -0.226886 -1.323457
v 0.338914 0.149751 -1.323456
v 0.338914 -0.226886 -0.648205
v 0.338914 0.149751 -0.648204
v -0.554972 0.166544 -1.051012
v -0.554972 -0.243680 -2.157663
v -0.554972 -0.243680 -1.051012
v -0.554972 0.166544 -2.157663
v 0.554062 -0.243680 -2.157663
v 0.554062 0.166544 -2.157663
v 0.554062 -0.243680 -1.051012
v 0.554062 0.166544 -1.051012
v 0.546697 0.205487 -1.768022
v 0.546697 -0.239368 -2.171291
v 0.546697 -0.239368 -1.768022
v 0.546697 0.205487 -2.171291
v 0.801245 -0.239368 -2.171291
v 0.801245 0.205487 -2.171291
v 0.801245 -0.239368 -1.768022
v 0.801245 0.205487 -1.768022
v 0.575831 0.155129 -1.100765
v 0.575831 -0.189010 -1.922114
v 0.575831 -0.189010 -1.100765
v 0.575831 0.155129 -1.922114
v 0.772111 -0.189010 -1.922114
v 0.772111 0.155129 -1.922114
v 0.772111 -0.189010 -1.100765
v 0.772111 0.155129 -1.100765
v -0.771941 0.756801 -2.294092
v -0.771941 0.106782 -1.678438
v -0.771858 0.880349 -1.975354
v -0.771858 -0.016767 -1.997176
v -0.574619 0.106782 -1.678438
v -0.574619 0.756801 -2.294092
v -0.574702 0.880349 -1.975354
v -0.574702 -0.016767 -1.997176
v -0.800530 0.115137 -2.100323
v -0.800530 -0.107067 -1.543648
v -0.800273 0.274253 -1.689356
v -0.800273 -0.266183 -1.954615
v -0.546030 -0.107067 -1.543648
v -0.546030 0.115137 -2.100323
v -0.546287 0.274253 -1.689356
v -0.546287 -0.266183 -1.954615
v -0.387418 0.332824 -2.190831
v -0.387418 -0.441247 -2.962588
v -0.387418 -0.441247 -2.190831
v -0.387418 0.332824 -2.962588
v 0.386507 -0.441247 -2.962588
v 0.386507 0.332824 -2.962588
v 0.386507 -0.441247 -2.190831
v 0.386507 0.332824 -2.190831
vt 0.625000 0.000000
vt 0.375000 0.250000
vt 0.375000 0.000000
vt 0.625000 0.250000
vt 0.375000 0.500000
vt 0.625000 0.500000
vt 0.375000 0.750000
vt 0.625000 0.750000
vt 0.375000 1.000000
vt 0.125000 0.750000
vt 0.125000 0.500000
vt 0.875000 0.500000
vt 0.875000 0.500000
vt 0.625000 0.750000
vt 0.625000 0.500000
vt 0.375000 1.000000
vt 0.375000 0.750000
vt 0.625000 0.000000
vt 0.375000 0.250000
vt 0.375000 0.000000
vt 0.375000 0.500000
vt 0.125000 0.750000
vt 0.125000 0.500000
vt 0.625000 0.250000
vt 0.625000 0.000000
vt 0.375000 0.250000
vt 0.375000 0.000000
vt 0.625000 0.250000
vt 0.375000 0.500000
vt 0.625000 0.500000
vt 0.375000 0.750000
vt 0.625000 0.750000
vt 0.375000 1.000000
vt 0.125000 0.750000
vt 0.125000 0.500000
vt 0.875000 0.500000
vt 0.625000 0.000000
vt 0.375000 0.250000
vt 0.375000 0.000000
vt 0.625000 0.250000
vt 0.375000 0.500000
vt 0.625000 0.500000
vt 0.375000 0.750000
vt 0.625000 0.750000
vt 0.375000 1.000000
vt 0.125000 0.750000
vt 0.125000 0.500000
vt 0.875000 0.500000
vt 0.625000 0.000000
vt 0.375000 0.250000
vt 0.375000 0.000000
vt 0.625000 0.250000
vt 0.375000 0.500000
vt 0.625000 0.500000
vt 0.375000 0.750000
vt 0.625000 0.750000
vt 0.375000 1.000000
vt 0.125000 0.750000
vt 0.125000 0.500000
vt 0.875000 0.500000
vt 0.625000 0.000000
vt 0.375000 0.250000
vt 0.375000 0.000000
vt 0.625000 0.250000
vt 0.375000 0.500000
vt 0.625000 0.500000
vt 0.375000 0.750000
vt 0.625000 0.750000
vt 0.375000 1.000000
vt 0.125000 0.750000
vt 0.125000 0.500000
vt 0.875000 0.500000
vt 0.625000 0.000000
vt 0.375000 0.250000
vt 0.375000 0.000000
vt 0.625000 0.250000
vt 0.375000 0.500000
vt 0.625000 0.500000
vt 0.375000 0.750000
vt 0.625000 0.750000
vt 0.375000 1.000000
vt 0.125000 0.750000
vt 0.125000 0.500000
vt 0.875000 0.500000
vt 0.625000 0.000000
vt 0.375000 0.250000
vt 0.375000 0.000000
vt 0.625000 0.250000
vt 0.375000 0.500000
vt 0.625000 0.750000
vt 0.375000 0.750000
vt 0.375000 1.000000
vt 0.125000 0.500000
vt 0.125000 0.750000
vt 0.875000 0.500000
vt 0.625000 0.500000
vt 0.625000 0.000000
vt 0.375000 0.250000
vt 0.375000 0.000000
vt 0.625000 0.250000
vt 0.375000 0.500000
vt 0.625000 0.750000
vt 0.375000 0.750000
vt 0.375000 1.000000
vt 0.125000 0.750000
vt 0.125000 0.500000
vt 0.875000 0.500000
vt 0.625000 0.500000
vt 0.625000 0.000000
vt 0.375000 0.250000
vt 0.375000 0.000000
vt 0.625000 0.250000
vt 0.375000 0.500000
vt 0.625000 0.500000
vt 0.375000 0.750000
vt 0.625000 0.750000
vt 0.375000 1.000000
vt 0.125000 0.750000
vt 0.125000 0.500000
vt 0.875000 0.500000
vt 0.625000 1.000000
vt 0.875000 0.750000
vt 0.875000 0.750000
vt 0.625000 1.000000
vt 0.625000 1.000000
vt 0.875000 0.750000
vt 0.625000 1.000000
vt 0.875000 0.750000
vt 0.625000 1.000000
vt 0.875000 0.750000
vt 0.625000 1.000000
vt 0.875000 0.750000
vt 0.625000 1.000000
vt 0.875000 0.750000
vt 0.625000 1.000000
vt 0.875000 0.750000
vt 0.625000 1.000000
vt 0.875000 0.750000
vt 0.625000 1.000000
vt 0.875000 0.750000
vn -1.0000 0.0000 0.0000
vn 0.0000 0.0000 -1.0000
vn 1.0000 -0.0000 0.0000
vn 0.0000 -0.0000 1.0000
vn 0.0000 -1.0000 -0.0000
vn 0.0000 1.0000 0.0000
vn -1.0000 0.0001 0.0001
vn -1.0000 -0.0001 -0.0001
vn -1.0000 0.0002 0.0002
vn 0.0000 -0.9324 0.3614
vn 1.0000 -0.0001 -0.0001
vn 1.0000 0.0001 0.0001
vn 1.0000 0.0002 0.0002
vn 0.0000 0.9324 -0.3614
vn 0.0000 0.3583 0.9336
vn 0.0000 -0.3583 -0.9336
vn -1.0000 0.0008 0.0003
vn 0.0000 -0.9325 0.3611
vn 1.0000 0.0008 0.0003
vn 0.0000 0.9325 -0.3611
vn 0.0000 0.3569 0.9341
vn 0.0000 -0.3569 -0.9341
vn -1.0000 -0.0002 -0.0002
vn 1.0000 -0.0002 -0.0002
vn -1.0000 -0.0008 -0.0003
vn 1.0000 -0.0008 -0.0003
usemtl Material.003
s 1
f 1/1/1 2/2/1 3/3/1
f 4/4/2 5/5/2 2/2/2
f 6/6/3 7/7/3 5/5/3
f 8/8/4 3/9/4 7/7/4
f 5/5/5 3/10/5 2/11/5
f 4/12/6 8/8/6 6/6/6
f 9/13/6 10/14/6 11/15/6
f 10/14/4 12/16/4 13/17/4
f 14/18/1 15/19/1 12/20/1
f 16/21/5 12/22/5 15/23/5
f 11/15/3 13/17/3 16/21/3
f 9/24/2 16/21/2 15/19/2
f 17/25/1 18/26/1 19/27/1
f 20/28/2 21/29/2 18/26/2
f 22/30/3 23/31/3 21/29/3
f 24/32/4 19/33/4 23/31/4
f 21/29/5 19/34/5 18/35/5
f 20/36/6 24/32/6 22/30/6
f 25/37/1 26/38/1 27/39/1
f 28/40/2 29/41/2 26/38/2
f 30/42/3 31/43/3 29/41/3
f 32/44/4 27/45/4 31/43/4
f 29/41/5 27/46/5 26/47/5
f 28/48/6 32/44/6 30/42/6
f 33/49/1 34/50/1 35/51/1
f 36/52/2 37/53/2 34/50/2
f 38/54/3 39/55/3 37/53/3
f 40/56/4 35/57/4 39/55/4
f 37/53/5 35/58/5 34/59/5
f 36/60/6 40/56/6 38/54/6
f 41/61/1 42/62/1 43/63/1
f 44/64/2 45/65/2 42/62/2
f 46/66/3 47/67/3 45/65/3
f 48/68/4 43/69/4 47/67/4
f 45/65/5 43/70/5 42/71/5
f 44/72/6 48/68/6 46/66/6
f 49/73/1 50/74/1 51/75/1
f 52/76/2 53/77/2 50/74/2
f 54/78/3 55/79/3 53/77/3
f 56/80/4 51/81/4 55/79/4
f 53/77/5 51/82/5 50/83/5
f 52/84/6 56/80/6 54/78/6
f 57/85/7 58/86/8 59/87/9
f 60/88/10 61/89/10 58/86/10
f 61/89/11 62/90/12 63/91/13
f 62/90/14 59/92/14 63/91/14
f 58/93/15 63/91/15 59/94/15
f 60/95/16 62/90/16 64/96/16
f 65/97/1 66/98/1 67/99/17
f 68/100/18 69/101/18 66/98/18
f 69/101/3 70/102/3 71/103/19
f 70/102/20 67/104/20 71/103/20
f 69/101/21 67/105/21 66/106/21
f 68/107/22 70/102/22 72/108/22
f 73/109/1 74/110/1 75/111/1
f 76/112/2 77/113/2 74/110/2
f 78/114/3 79/115/3 77/113/3
f 80/116/4 75/117/4 79/115/4
f 77/113/5 75/118/5 74/119/5
f 76/120/6 80/116/6 78/114/6
f 1/1/1 4/4/1 2/2/1
f 4/4/2 6/6/2 5/5/2
f 6/6/3 8/8/3 7/7/3
f 8/8/4 1/121/4 3/9/4
f 5/5/5 7/7/5 3/10/5
f 4/12/6 1/122/6 8/8/6
f 9/13/6 14/123/6 10/14/6
f 10/14/4 14/124/4 12/16/4
f 14/18/1 9/24/1 15/19/1
f 16/21/5 13/17/5 12/22/5
f 11/15/3 10/14/3 13/17/3
f 9/24/2 11/15/2 16/21/2
f 17/25/1 20/28/1 18/26/1
f 20/28/2 22/30/2 21/29/2
f 22/30/3 24/32/3 23/31/3
f 24/32/4 17/125/4 19/33/4
f 21/29/5 23/31/5 19/34/5
f 20/36/6 17/126/6 24/32/6
f 25/37/1 28/40/1 26/38/1
f 28/40/2 30/42/2 29/41/2
f 30/42/3 32/44/3 31/43/3
f 32/44/4 25/127/4 27/45/4
f 29/41/5 31/43/5 27/46/5
f 28/48/6 25/128/6 32/44/6
f 33/49/1 36/52/1 34/50/1
f 36/52/2 38/54/2 37/53/2
f 38/54/3 40/56/3 39/55/3
f 40/56/4 33/129/4 35/57/4
f 37/53/5 39/55/5 35/58/5
f 36/60/6 33/130/6 40/56/6
f 41/61/1 44/64/1 42/62/1
f 44/64/2 46/66/2 45/65/2
f 46/66/3 48/68/3 47/67/3
f 48/68/4 41/131/4 43/69/4
f 45/65/5 47/67/5 43/70/5
f 44/72/6 41/132/6 48/68/6
f 49/73/1 52/76/1 50/74/1
f 52/76/2 54/78/2 53/77/2
f 54/78/3 56/80/3 55/79/3
f 56/80/4 49/133/4 51/81/4
f 53/77/5 55/79/5 51/82/5
f 52/84/6 49/134/6 56/80/6
f 57/85/7 60/88/23 58/86/8
f 60/88/10 64/96/10 61/89/10
f 61/89/11 64/96/24 62/90/12
f 62/90/14 57/135/14 59/92/14
f 58/93/15 61/89/15 63/91/15
f 60/95/16 57/136/16 62/90/16
f 65/97/1 68/100/25 66/98/1
f 68/100/18 72/108/18 69/101/18
f 69/101/3 72/108/26 70/102/3
f 70/102/20 65/137/20 67/104/20
f 69/101/21 71/103/21 67/105/21
f 68/107/22 65/138/22 70/102/22
f 73/109/1 76/112/1 74/110/1
f 76/112/2 78/114/2 77/113/2
f 78/114/3 80/116/3 79/115/3
f 80/116/4 73/139/4 75/117/4
f 77/113/5 79/115/5 75/118/5
f 76/120/6 73/140/6 80/116/6
