# Blender v2.92.0 OBJ File: 'hero.blend'
# www.blender.org
mtllib hero_bat.mtl
o Cube_Material.002_0.001
v 0.813623 0.750591 2.506249
v 0.813623 1.123863 2.506249
v 0.813623 1.123863 2.391046
v 0.813623 0.750591 2.391046
v 0.813623 1.123863 2.506249
v 1.184797 1.123863 2.506249
v 1.184797 1.123863 2.391046
v 0.813623 1.123863 2.391046
v 1.184797 1.123863 2.506249
v 1.184797 0.750591 2.506249
v 1.184797 0.750591 2.391046
v 1.184797 1.123863 2.391046
v 1.184797 0.750591 2.506249
v 0.813623 0.750591 2.506249
v 0.813623 0.750591 2.391046
v 1.184797 0.750591 2.391046
v 0.813623 1.123863 2.391046
v 1.184797 1.123863 2.391046
v 1.095397 1.033958 2.368849
v 0.903023 1.033958 2.368849
v 1.201969 1.139985 4.242707
v 0.796452 1.139985 4.242707
v 0.780620 1.155818 4.542523
v 1.217801 1.155818 4.542523
v 1.102008 0.834429 2.529025
v 0.896412 0.834429 2.529025
v 0.813623 0.750591 2.506249
v 1.184797 0.750591 2.506249
v 1.102008 1.040025 2.529025
v 1.102008 0.834429 2.529025
v 1.184797 0.750591 2.506249
v 1.184797 1.123863 2.506249
v 0.896412 1.040025 2.529025
v 1.102008 1.040025 2.529025
v 1.184797 1.123863 2.506249
v 0.813623 1.123863 2.506249
v 0.896412 0.834429 2.529025
v 0.896412 1.040025 2.529025
v 0.813623 1.123863 2.506249
v 0.813623 0.750591 2.506249
v 1.217801 0.718637 4.542523
v 1.217801 1.155818 4.542523
v 1.217801 1.155818 5.493320
v 1.217801 0.718637 5.493320
v 1.201969 0.734469 4.242707
v 1.201969 1.139985 4.242707
v 1.217801 1.155818 4.542523
v 1.217801 0.718637 4.542523
v 0.796452 1.139985 4.242707
v 0.796452 0.734469 4.242707
v 0.780620 0.718637 4.542523
v 0.780620 1.155818 4.542523
v 0.796452 0.734469 4.242707
v 1.201969 0.734469 4.242707
v 1.217801 0.718637 4.542523
v 0.780620 0.718637 4.542523
v 0.833914 0.771930 5.571395
v 1.164507 0.771930 5.571395
v 1.077256 0.859181 5.649471
v 0.921165 0.859181 5.649471
v 0.780620 1.155818 4.542523
v 0.780620 0.718637 4.542523
v 0.780620 0.718637 5.493320
v 0.780620 1.155818 5.493320
v 0.780620 0.718637 4.542523
v 1.217801 0.718637 4.542523
v 1.217801 0.718637 5.493320
v 0.780620 0.718637 5.493320
v 1.217801 1.155818 4.542523
v 0.780620 1.155818 4.542523
v 0.780620 1.155818 5.493320
v 1.217801 1.155818 5.493320
v 1.077256 0.859181 5.649471
v 1.077256 1.015273 5.649471
v 0.921165 1.015273 5.649471
v 0.921165 0.859181 5.649471
v 1.164507 1.102524 5.571395
v 0.833914 1.102524 5.571395
v 0.921165 1.015273 5.649471
v 1.077256 1.015273 5.649471
v 1.164507 0.771930 5.571395
v 1.164507 1.102524 5.571395
v 1.077256 1.015273 5.649471
v 1.077256 0.859181 5.649471
v 0.833914 1.102524 5.571395
v 0.833914 0.771930 5.571395
v 0.921165 0.859181 5.649471
v 0.921165 1.015273 5.649471
v 0.903023 0.840496 2.368849
v 0.903023 1.033958 2.368849
v 1.095397 1.033958 2.368849
v 1.095397 0.840496 2.368849
v 1.184797 0.750591 2.391046
v 0.813623 0.750591 2.391046
v 0.903023 0.840496 2.368849
v 1.095397 0.840496 2.368849
v 1.184797 1.123863 2.391046
v 1.184797 0.750591 2.391046
v 1.095397 0.840496 2.368849
v 1.095397 1.033958 2.368849
v 0.813623 0.750591 2.391046
v 0.813623 1.123863 2.391046
v 0.903023 1.033958 2.368849
v 0.903023 0.840496 2.368849
v 0.861503 0.799520 3.643075
v 1.136917 0.799520 3.643075
v 1.169730 0.766708 3.942892
v 0.828691 0.766708 3.942892
v 0.861503 1.074934 3.643075
v 0.861503 0.799520 3.643075
v 0.828691 0.766708 3.942892
v 0.828691 1.107747 3.942892
v 1.136917 0.799520 3.643075
v 1.136917 1.074934 3.643075
v 1.169730 1.107747 3.942892
v 1.169730 0.766708 3.942892
v 1.136917 1.074934 3.643075
v 0.861503 1.074934 3.643075
v 0.828691 1.107747 3.942892
v 1.169730 1.107747 3.942892
v 0.828691 0.766708 3.942892
v 1.169730 0.766708 3.942892
v 1.201969 0.734469 4.242707
v 0.796452 0.734469 4.242707
v 0.828691 1.107747 3.942892
v 0.828691 0.766708 3.942892
v 0.796452 0.734469 4.242707
v 0.796452 1.139985 4.242707
v 1.169730 0.766708 3.942892
v 1.169730 1.107747 3.942892
v 1.201969 1.139985 4.242707
v 1.201969 0.734469 4.242707
v 1.169730 1.107747 3.942892
v 0.828691 1.107747 3.942892
v 0.796452 1.139985 4.242707
v 1.201969 1.139985 4.242707
v 1.102008 1.040025 3.343260
v 0.896412 1.040025 3.343260
v 0.861503 1.074934 3.643075
v 1.136917 1.074934 3.643075
v 1.102008 0.834429 3.343260
v 1.102008 1.040025 3.343260
v 1.136917 1.074934 3.643075
v 1.136917 0.799520 3.643075
v 0.896412 1.040025 3.343260
v 0.896412 0.834429 3.343260
v 0.861503 0.799520 3.643075
v 0.861503 1.074934 3.643075
v 0.896412 0.834429 3.343260
v 1.102008 0.834429 3.343260
v 1.136917 0.799520 3.643075
v 0.861503 0.799520 3.643075
v 0.780620 1.155818 5.493320
v 0.780620 0.718637 5.493320
v 0.833914 0.771930 5.571395
v 0.833914 1.102524 5.571395
v 1.217801 0.718637 5.493320
v 1.217801 1.155818 5.493320
v 1.164507 1.102524 5.571395
v 1.164507 0.771930 5.571395
v 1.217801 1.155818 5.493320
v 0.780620 1.155818 5.493320
v 0.833914 1.102524 5.571395
v 1.164507 1.102524 5.571395
v 0.780620 0.718637 5.493320
v 1.217801 0.718637 5.493320
v 1.164507 0.771930 5.571395
v 0.833914 0.771930 5.571395
v 0.896412 0.834429 3.343260
v 0.896412 1.040025 3.343260
v 0.896412 1.040025 2.529025
v 0.896412 0.834429 2.529025
v 0.896412 1.040025 3.343260
v 1.102008 1.040025 3.343260
v 1.102008 1.040025 2.529025
v 0.896412 1.040025 2.529025
v 1.102008 1.040025 3.343260
v 1.102008 0.834429 3.343260
v 1.102008 0.834429 2.529025
v 1.102008 1.040025 2.529025
v 1.102008 0.834429 3.343260
v 0.896412 0.834429 3.343260
v 0.896412 0.834429 2.529025
v 1.102008 0.834429 2.529025
v 0.800000 0.200000 2.700000
v 1.200000 0.200000 2.700000
v 0.800000 -0.200000 3.065226
v 0.800000 0.200000 3.065226
v 1.200000 -0.200000 3.065226
v 1.200000 0.200000 3.065226
v 0.800000 1.132689 3.065226
v 0.800000 1.132689 2.700000
v 1.200000 1.132689 2.700000
v 1.200000 1.132689 3.065226
v 0.848666 -0.151334 4.300000
v 0.800000 -0.200000 4.105338
v 0.848666 0.151334 4.300000
v 0.800000 0.200000 4.105338
v 1.200000 -0.151334 4.300000
v 1.200000 -0.200000 4.105338
v 1.200000 0.200000 4.105338
v 1.200000 0.151334 4.300000
v 0.800000 -0.151536 2.700000
v 0.800000 -0.200000 2.893857
v 1.200000 -0.200000 2.893857
v 1.200000 -0.151536 2.700000
v -0.500000 -0.500000 5.493170
v -0.500000 0.500000 5.493170
v -0.500000 -0.500000 4.493170
v -0.500000 0.500000 4.493170
v 0.500000 -0.500000 5.493170
v 0.500000 0.500000 5.493170
v 0.500000 -0.500000 4.493170
v 0.500000 0.500000 4.493170
v -1.200000 -0.199998 4.400001
v -1.200000 0.200002 4.400001
v -1.200000 -0.199998 2.400000
v -1.200000 0.200002 2.400000
v -0.800000 -0.199998 4.400001
v -0.800000 0.200002 4.400001
v -0.800000 -0.199998 2.400000
v -0.800000 0.200002 2.400000
v -0.600000 -0.200000 2.144390
v -0.600000 0.200000 2.144390
v -0.600000 -0.200000 0.144390
v -0.600000 0.200000 0.144390
v -0.200000 -0.200000 2.144390
v -0.200000 0.200000 2.144390
v -0.200000 -0.200000 0.144390
v -0.200000 0.200000 0.144390
v -0.800000 -0.272615 4.500000
v -0.436185 -0.500000 4.500000
v -0.436185 0.500000 4.500000
v -0.800000 0.272615 4.500000
v -0.436185 -0.500000 1.500000
v -0.800000 -0.272615 1.500000
v -0.800000 0.272615 1.500000
v -0.436185 0.500000 1.500000
v 0.436184 -0.500000 4.500000
v 0.800000 -0.272615 4.500000
v 0.800000 0.272615 4.500000
v 0.436184 0.500000 4.500000
v 0.800000 -0.272615 1.500000
v 0.436184 -0.500000 1.500000
v 0.436184 0.500000 1.500000
v 0.800000 0.272615 1.500000
v 0.200000 -0.200000 2.144390
v 0.200000 0.200000 2.144390
v 0.200000 -0.200000 0.144390
v 0.200000 0.200000 0.144390
v 0.600000 -0.200000 2.144390
v 0.600000 0.200000 2.144390
v 0.600000 -0.200000 0.144390
v 0.600000 0.200000 0.144390
v -0.600000 -0.200000 2.144390
v -0.600000 0.200000 2.144390
v -0.600000 -0.200000 0.144390
v -0.600000 0.200000 0.144390
v -0.200000 -0.200000 2.144390
v -0.200000 0.200000 2.144390
v -0.200000 -0.200000 0.144390
v -0.200000 0.200000 0.144390
v -1.000000 -1.000000 0.000000
v 1.000000 -1.000000 0.000000
v -1.000000 1.000000 0.000000
v 1.000000 1.000000 0.000000
v -0.682471 -0.682471 0.301290
v 0.682471 -0.682471 0.301290
v -0.682471 0.682471 0.301290
v 0.682471 0.682471 0.301290
v -1.000000 1.000000 0.177987
v -1.000000 -1.000000 0.177987
v 1.000000 -1.000000 0.177987
v 1.000000 1.000000 0.177987
vt 0.000000 0.000000
vt 0.000000 0.000000
vt 0.000000 0.000000
vt 0.000000 0.000000
vt 0.000000 0.000000
vt 0.000000 0.000000
vt 0.000000 0.000000
vt 0.000000 0.000000
vt 0.000000 0.000000
vt 0.000000 0.000000
vt 0.000000 0.000000
vt 0.000000 0.000000
vt 0.000000 0.000000
vt 0.000000 0.000000
vt 0.000000 0.000000
vt 0.000000 0.000000
vt 0.000000 0.000000
vt 0.000000 0.000000
vt 0.000000 0.000000
vt 0.000000 0.000000
vt 0.000000 0.000000
vt 0.000000 0.000000
vt 0.000000 0.000000
vt 0.000000 0.000000
vt 0.000000 0.000000
vt 0.000000 0.000000
vt 0.000000 0.000000
vt 0.000000 0.000000
vt 0.000000 0.000000
vt 0.000000 0.000000
vt 0.000000 0.000000
vt 0.000000 0.000000
vt 0.000000 0.000000
vt 0.000000 0.000000
vt 0.000000 0.000000
vt 0.000000 0.000000
vt 0.000000 0.000000
vt 0.000000 0.000000
vt 0.000000 0.000000
vt 0.000000 0.000000
vt 0.000000 0.000000
vt 0.000000 0.000000
vt 0.000000 0.000000
vt 0.000000 0.000000
vt 0.000000 0.000000
vt 0.000000 0.000000
vt 0.000000 0.000000
vt 0.000000 0.000000
vt 0.000000 0.000000
vt 0.000000 0.000000
vt 0.000000 0.000000
vt 0.000000 0.000000
vt 0.000000 0.000000
vt 0.000000 0.000000
vt 0.000000 0.000000
vt 0.000000 0.000000
vt 0.000000 0.000000
vt 0.000000 0.000000
vt 0.000000 0.000000
vt 0.000000 0.000000
vt 0.000000 0.000000
vt 0.000000 0.000000
vt 0.000000 0.000000
vt 0.000000 0.000000
vt 0.000000 0.000000
vt 0.000000 0.000000
vt 0.000000 0.000000
vt 0.000000 0.000000
vt 0.000000 0.000000
vt 0.000000 0.000000
vt 0.000000 0.000000
vt 0.000000 0.000000
vt 0.000000 0.000000
vt 0.000000 0.000000
vt 0.000000 0.000000
vt 0.000000 0.000000
vt 0.000000 0.000000
vt 0.000000 0.000000
vt 0.000000 0.000000
vt 0.000000 0.000000
vt 0.000000 0.000000
vt 0.000000 0.000000
vt 0.000000 0.000000
vt 0.000000 0.000000
vt 0.000000 0.000000
vt 0.000000 0.000000
vt 0.000000 0.000000
vt 0.000000 0.000000
vt 0.000000 0.000000
vt 0.000000 0.000000
vt 0.000000 0.000000
vt 0.000000 0.000000
vt 0.000000 0.000000
vt 0.000000 0.000000
vt 0.000000 0.000000
vt 0.000000 0.000000
vt 0.000000 0.000000
vt 0.000000 0.000000
vt 0.000000 0.000000
vt 0.000000 0.000000
vt 0.000000 0.000000
vt 0.000000 0.000000
vt 0.000000 0.000000
vt 0.000000 0.000000
vt 0.000000 0.000000
vt 0.000000 0.000000
vt 0.000000 0.000000
vt 0.000000 0.000000
vt 0.000000 0.000000
vt 0.000000 0.000000
vt 0.000000 0.000000
vt 0.000000 0.000000
vt 0.000000 0.000000
vt 0.000000 0.000000
vt 0.000000 0.000000
vt 0.000000 0.000000
vt 0.000000 0.000000
vt 0.000000 0.000000
vt 0.000000 0.000000
vt 0.000000 0.000000
vt 0.000000 0.000000
vt 0.000000 0.000000
vt 0.000000 0.000000
vt 0.000000 0.000000
vt 0.000000 0.000000
vt 0.000000 0.000000
vt 0.000000 0.000000
vt 0.000000 0.000000
vt 0.000000 0.000000
vt 0.000000 0.000000
vt 0.000000 0.000000
vt 0.000000 0.000000
vt 0.000000 0.000000
vt 0.000000 0.000000
vt 0.000000 0.000000
vt 0.000000 0.000000
vt 0.000000 0.000000
vt 0.000000 0.000000
vt 0.000000 0.000000
vt 0.000000 0.000000
vt 0.000000 0.000000
vt 0.000000 0.000000
vt 0.000000 0.000000
vt 0.000000 0.000000
vt 0.000000 0.000000
vt 0.000000 0.000000
vt 0.000000 0.000000
vt 0.000000 0.000000
vt 0.000000 0.000000
vt 0.000000 0.000000
vt 0.000000 0.000000
vt 0.000000 0.000000
vt 0.000000 0.000000
vt 0.000000 0.000000
vt 0.000000 0.000000
vt 0.000000 0.000000
vt 0.000000 0.000000
vt 0.000000 0.000000
vt 0.000000 0.000000
vt 0.000000 0.000000
vt 0.000000 0.000000
vt 0.000000 0.000000
vt 0.000000 0.000000
vt 0.000000 0.000000
vt 0.000000 0.000000
vt 0.000000 0.000000
vt 0.000000 0.000000
vt 0.000000 0.000000
vt 0.000000 0.000000
vt 0.000000 0.000000
vt 0.000000 0.000000
vt 0.000000 0.000000
vt 0.000000 0.000000
vt 0.000000 0.000000
vt 0.000000 0.000000
vt 0.000000 0.000000
vt 0.000000 0.000000
vt 0.000000 0.000000
vt 0.000000 0.000000
vt 0.000000 0.000000
vt 0.000000 0.000000
vt 0.000000 0.000000
vt 0.000000 0.000000
vt 0.000000 0.000000
vt 0.625000 0.557067
vt 0.375000 0.530290
vt 0.625000 0.500000
vt 0.125000 0.557067
vt 0.125000 0.530290
vt 0.375000 0.557067
vt 0.125000 0.719584
vt 0.875000 0.557067
vt 0.625000 0.719584
vt 0.594584 0.750000
vt 0.405416 0.750000
vt 0.375000 0.719584
vt 0.625000 0.557067
vt 0.625000 0.250000
vt 0.405290 0.250000
vt 0.375000 0.219710
vt 0.405416 0.969584
vt 0.875000 0.500000
vt 0.625000 0.500000
vt 0.625000 0.192933
vt 0.625000 0.250000
vt 0.875000 0.557067
vt 0.594584 0.000000
vt 0.375000 0.030416
vt 0.405416 0.000000
vt 0.155416 0.750000
vt 0.625000 0.750000
vt 0.594584 0.969584
vt 0.625000 0.030416
vt 0.375000 0.192933
vt 0.375000 0.500000
vt 0.405290 0.500000
vt 0.625000 0.000000
vt 0.375000 0.250000
vt 0.375000 0.000000
vt 0.625000 0.250000
vt 0.375000 0.500000
vt 0.625000 0.500000
vt 0.375000 0.750000
vt 0.625000 0.750000
vt 0.375000 1.000000
vt 0.125000 0.750000
vt 0.125000 0.500000
vt 0.875000 0.500000
vt 0.625000 0.000000
vt 0.375000 0.250000
vt 0.375000 0.000000
vt 0.625000 0.250000
vt 0.375000 0.500000
vt 0.625000 0.500000
vt 0.375000 0.750000
vt 0.625000 0.750000
vt 0.375000 1.000000
vt 0.125000 0.750000
vt 0.125000 0.500000
vt 0.875000 0.500000
vt 0.625000 0.000000
vt 0.375000 0.250000
vt 0.375000 0.000000
vt 0.625000 0.250000
vt 0.375000 0.500000
vt 0.625000 0.500000
vt 0.375000 0.750000
vt 0.625000 0.750000
vt 0.375000 1.000000
vt 0.125000 0.750000
vt 0.125000 0.500000
vt 0.875000 0.500000
vt 0.568154 1.000000
vt 0.431846 1.000000
vt 0.375000 0.943154
vt 0.568154 0.500000
vt 0.431846 0.750000
vt 0.431846 0.500000
vt 0.818154 0.500000
vt 0.681846 0.750000
vt 0.681846 0.500000
vt 0.568154 0.000000
vt 0.431846 0.250000
vt 0.431846 0.000000
vt 0.375000 0.443154
vt 0.181846 0.750000
vt 0.125000 0.500000
vt 0.181846 0.500000
vt 0.625000 0.250000
vt 0.625000 0.000000
vt 0.318154 0.500000
vt 0.318154 0.750000
vt 0.625000 0.000000
vt 0.375000 0.250000
vt 0.375000 0.000000
vt 0.625000 0.250000
vt 0.375000 0.500000
vt 0.625000 0.500000
vt 0.375000 0.750000
vt 0.625000 0.750000
vt 0.375000 1.000000
vt 0.125000 0.750000
vt 0.125000 0.500000
vt 0.875000 0.500000
vt 0.625000 0.000000
vt 0.375000 0.250000
vt 0.375000 0.000000
vt 0.625000 0.250000
vt 0.375000 0.500000
vt 0.625000 0.500000
vt 0.375000 0.750000
vt 0.625000 0.750000
vt 0.375000 1.000000
vt 0.125000 0.750000
vt 0.125000 0.500000
vt 0.875000 0.500000
vt 0.000000 1.000000
vt 1.000000 0.000000
vt 0.000000 0.000000
vt 0.841236 0.158764
vt 0.158764 0.841236
vt 0.158764 0.158764
vt 1.000000 1.000000
vt 1.000000 1.000000
vt 0.000000 0.000000
vt 1.000000 0.000000
vt 0.000000 1.000000
vt 0.841236 0.841236
vt 0.875000 0.719584
vt 0.625000 0.192933
vt 0.375000 0.750000
vt 0.625000 1.000000
vt 0.125000 0.500000
vt 0.625000 1.000000
vt 0.875000 0.750000
vt 0.625000 1.000000
vt 0.875000 0.750000
vt 0.625000 1.000000
vt 0.875000 0.750000
vt 0.375000 0.806846
vt 0.625000 0.806846
vt 0.568154 0.750000
vt 0.625000 0.943154
vt 0.818154 0.750000
vt 0.568154 0.250000
vt 0.375000 0.306846
vt 0.625000 0.306846
vt 0.625000 0.443154
vt 0.125000 0.750000
vt 0.625000 1.000000
vt 0.875000 0.750000
vt 0.625000 1.000000
vt 0.875000 0.750000
vn -1.0000 0.0000 0.0000
vn 0.0000 1.0000 0.0000
vn 1.0000 0.0000 0.0000
vn 0.0000 -1.0000 0.0000
vn 0.0000 0.2397 -0.9708
vn 0.0000 0.9986 -0.0527
vn 0.0000 -0.2622 0.9650
vn 0.2652 0.0000 0.9642
vn 0.0000 0.2622 0.9650
vn -0.2652 0.0000 0.9642
vn 0.9986 0.0000 -0.0527
vn -0.9986 0.0000 -0.0527
vn 0.0000 -0.9986 -0.0527
vn 0.0000 -0.6668 0.7452
vn 0.0000 0.0000 1.0000
vn 0.0000 0.6668 0.7452
vn 0.6668 0.0000 0.7452
vn -0.6668 0.0000 0.7452
vn 0.0000 0.0000 -1.0000
vn 0.0000 -0.2397 -0.9708
vn 0.2410 0.0000 -0.9705
vn -0.2410 0.0000 -0.9705
vn 0.0000 -0.9941 -0.1088
vn -0.9941 0.0000 -0.1088
vn 0.9941 0.0000 -0.1088
vn 0.0000 0.9941 -0.1088
vn 0.0000 -0.9943 -0.1069
vn -0.9943 0.0000 -0.1069
vn 0.9943 0.0000 -0.1069
vn 0.0000 0.9943 -0.1069
vn 0.0000 0.9933 -0.1157
vn 0.9933 0.0000 -0.1157
vn -0.9933 0.0000 -0.1157
vn 0.0000 -0.9933 -0.1157
vn -0.8259 0.0000 0.5638
vn 0.8259 0.0000 0.5638
vn 0.0000 0.8259 0.5638
vn 0.0000 -0.8259 0.5638
vn -0.9701 0.0000 0.2425
vn 0.0000 -0.9701 0.2425
vn 0.0000 0.9701 0.2425
vn 0.0000 -0.9701 -0.2425
vn -0.5300 -0.8480 0.0000
vn -0.5300 0.8480 0.0000
vn 0.5300 -0.8480 0.0000
vn 0.5300 0.8480 0.0000
vn -0.3620 0.0000 0.9322
vn 0.0000 -0.3620 0.9322
vn 0.3620 0.0000 0.9322
vn 0.0000 0.3620 0.9322
usemtl None
s off
f 1/1/1 2/2/1 3/3/1
f 1/1/1 3/3/1 4/4/1
f 5/5/2 6/6/2 7/7/2
f 5/5/2 7/7/2 8/8/2
f 9/9/3 10/10/3 11/11/3
f 9/9/3 11/11/3 12/12/3
f 13/13/4 14/14/4 15/15/4
f 13/13/4 15/15/4 16/16/4
f 17/17/5 18/18/5 19/19/5
f 17/17/5 19/19/5 20/20/5
f 21/21/6 22/22/6 23/23/6
f 21/21/6 23/23/6 24/24/6
f 25/25/7 26/26/7 27/27/7
f 25/25/7 27/27/7 28/28/7
f 29/29/8 30/30/8 31/31/8
f 29/29/8 31/31/8 32/32/8
f 33/33/9 34/34/9 35/35/9
f 33/33/9 35/35/9 36/36/9
f 37/37/10 38/38/10 39/39/10
f 37/37/10 39/39/10 40/40/10
f 41/41/3 42/42/3 43/43/3
f 41/41/3 43/43/3 44/44/3
f 45/45/11 46/46/11 47/47/11
f 45/45/11 47/47/11 48/48/11
f 49/49/12 50/50/12 51/51/12
f 49/49/12 51/51/12 52/52/12
f 53/53/13 54/54/13 55/55/13
f 53/53/13 55/55/13 56/56/13
f 57/57/14 58/58/14 59/59/14
f 57/57/14 59/59/14 60/60/14
f 61/61/1 62/62/1 63/63/1
f 61/61/1 63/63/1 64/64/1
f 65/65/4 66/66/4 67/67/4
f 65/65/4 67/67/4 68/68/4
f 69/69/2 70/70/2 71/71/2
f 69/69/2 71/71/2 72/72/2
f 73/73/15 74/74/15 75/75/15
f 73/73/15 75/75/15 76/76/15
f 77/77/16 78/78/16 79/79/16
f 77/77/16 79/79/16 80/80/16
f 81/81/17 82/82/17 83/83/17
f 81/81/17 83/83/17 84/84/17
f 85/85/18 86/86/18 87/87/18
f 85/85/18 87/87/18 88/88/18
f 89/89/19 90/90/19 91/91/19
f 89/89/19 91/91/19 92/92/19
f 93/93/20 94/94/20 95/95/20
f 93/93/20 95/95/20 96/96/20
f 97/97/21 98/98/21 99/99/21
f 97/97/21 99/99/21 100/100/21
f 101/101/22 102/102/22 103/103/22
f 101/101/22 103/103/22 104/104/22
f 105/105/23 106/106/23 107/107/23
f 105/105/23 107/107/23 108/108/23
f 109/109/24 110/110/24 111/111/24
f 109/109/24 111/111/24 112/112/24
f 113/113/25 114/114/25 115/115/25
f 113/113/25 115/115/25 116/116/25
f 117/117/26 118/118/26 119/119/26
f 117/117/26 119/119/26 120/120/26
f 121/121/27 122/122/27 123/123/27
f 121/121/27 123/123/27 124/124/27
f 125/125/28 126/126/28 127/127/28
f 125/125/28 127/127/28 128/128/28
f 129/129/29 130/130/29 131/131/29
f 129/129/29 131/131/29 132/132/29
f 133/133/30 134/134/30 135/135/30
f 133/133/30 135/135/30 136/136/30
f 137/137/31 138/138/31 139/139/31
f 137/137/31 139/139/31 140/140/31
f 141/141/32 142/142/32 143/143/32
f 141/141/32 143/143/32 144/144/32
f 145/145/33 146/146/33 147/147/33
f 145/145/33 147/147/33 148/148/33
f 149/149/34 150/150/34 151/151/34
f 149/149/34 151/151/34 152/152/34
f 153/153/35 154/154/35 155/155/35
f 153/153/35 155/155/35 156/156/35
f 157/157/36 158/158/36 159/159/36
f 157/157/36 159/159/36 160/160/36
f 161/161/37 162/162/37 163/163/37
f 161/161/37 163/163/37 164/164/37
f 165/165/38 166/166/38 167/167/38
f 165/165/38 167/167/38 168/168/38
f 169/169/1 170/170/1 171/171/1
f 169/169/1 171/171/1 172/172/1
f 173/173/2 174/174/2 175/175/2
f 173/173/2 175/175/2 176/176/2
f 177/177/3 178/178/3 179/179/3
f 177/177/3 179/179/3 180/180/3
f 181/181/4 182/182/4 183/183/4
f 181/181/4 183/183/4 184/184/4
f 190/185/3 205/186/3 186/187/3
f 205/186/4 187/188/4 204/189/4
f 189/190/4 196/191/4 187/188/4
f 188/192/2 201/193/2 190/185/2
f 202/194/3 199/195/3 200/196/3
f 186/187/3 194/197/3 190/185/3
f 185/198/1 203/199/1 204/200/1
f 202/194/15 195/201/15 199/195/15
f 192/202/2 194/197/2 193/203/2
f 188/204/1 192/205/1 185/198/1
f 185/198/19 193/203/19 186/187/19
f 190/185/15 191/206/15 188/192/15
f 197/207/39 196/208/39 195/209/39
f 200/196/40 195/210/40 196/191/40
f 201/211/41 197/212/41 202/194/41
f 198/213/1 187/214/1 196/208/1
f 204/189/42 206/215/42 205/186/42
f 185/198/19 206/216/19 203/199/19
f 208/217/1 209/218/1 207/219/1
f 210/220/19 213/221/19 209/218/19
f 214/222/3 211/223/3 213/221/3
f 212/224/15 207/225/15 211/223/15
f 213/221/4 207/226/4 209/227/4
f 210/228/2 212/224/2 214/222/2
f 216/229/1 217/230/1 215/231/1
f 218/232/19 221/233/19 217/230/19
f 222/234/3 219/235/3 221/233/3
f 220/236/15 215/237/15 219/235/15
f 221/233/4 215/238/4 217/239/4
f 218/240/2 220/236/2 222/234/2
f 224/241/1 225/242/1 223/243/1
f 226/244/19 229/245/19 225/242/19
f 230/246/3 227/247/3 229/245/3
f 228/248/15 223/249/15 227/247/15
f 229/245/4 223/250/4 225/251/4
f 226/252/2 228/248/2 230/246/2
f 234/253/15 231/254/15 232/255/15
f 246/256/3 240/257/3 243/258/3
f 238/259/2 242/260/2 245/261/2
f 234/262/1 236/263/1 231/264/1
f 246/256/19 243/258/19 244/265/19
f 232/266/43 236/267/43 235/268/43
f 238/269/44 234/262/44 233/270/44
f 244/271/45 240/257/45 239/272/45
f 242/260/46 246/256/46 245/261/46
f 244/271/4 232/266/4 235/268/4
f 248/273/1 249/274/1 247/275/1
f 250/276/19 253/277/19 249/274/19
f 254/278/3 251/279/3 253/277/3
f 252/280/15 247/281/15 251/279/15
f 253/277/4 247/282/4 249/283/4
f 250/284/2 252/280/2 254/278/2
f 256/285/1 257/286/1 255/287/1
f 258/288/19 261/289/19 257/286/19
f 262/290/3 259/291/3 261/289/3
f 260/292/15 255/293/15 259/291/15
f 261/289/4 255/294/4 257/295/4
f 258/296/2 260/292/2 262/290/2
f 265/297/19 264/298/19 263/299/19
f 268/300/15 269/301/15 267/302/15
f 265/297/2 274/303/2 266/304/2
f 264/298/4 272/305/4 263/299/4
f 266/304/3 273/306/3 264/298/3
f 263/299/1 271/307/1 265/297/1
f 269/301/47 272/305/47 267/302/47
f 267/302/48 273/306/48 268/300/48
f 268/300/49 274/303/49 270/308/49
f 270/308/50 271/307/50 269/301/50
f 189/190/3 205/186/3 190/185/3
f 205/186/3 206/216/3 186/187/3
f 205/186/4 189/190/4 187/188/4
f 189/190/4 200/196/4 196/191/4
f 188/192/2 198/309/2 201/193/2
f 200/196/3 189/190/3 190/185/3
f 190/185/3 201/193/3 200/196/3
f 201/193/3 202/194/3 200/196/3
f 186/187/3 193/203/3 194/197/3
f 204/200/1 187/214/1 188/204/1
f 188/204/1 185/198/1 204/200/1
f 202/194/15 197/212/15 195/201/15
f 192/202/2 191/206/2 194/197/2
f 188/204/1 191/310/1 192/205/1
f 185/198/19 192/205/19 193/203/19
f 190/185/15 194/197/15 191/206/15
f 197/207/39 198/213/39 196/208/39
f 200/196/40 199/311/40 195/210/40
f 201/211/41 198/312/41 197/212/41
f 198/213/1 188/204/1 187/214/1
f 204/189/42 203/313/42 206/215/42
f 185/198/19 186/187/19 206/216/19
f 208/217/1 210/220/1 209/218/1
f 210/220/19 214/222/19 213/221/19
f 214/222/3 212/224/3 211/223/3
f 212/224/15 208/314/15 207/225/15
f 213/221/4 211/223/4 207/226/4
f 210/228/2 208/315/2 212/224/2
f 216/229/1 218/232/1 217/230/1
f 218/232/19 222/234/19 221/233/19
f 222/234/3 220/236/3 219/235/3
f 220/236/15 216/316/15 215/237/15
f 221/233/4 219/235/4 215/238/4
f 218/240/2 216/317/2 220/236/2
f 224/241/1 226/244/1 225/242/1
f 226/244/19 230/246/19 229/245/19
f 230/246/3 228/248/3 227/247/3
f 228/248/15 224/318/15 223/249/15
f 229/245/4 227/247/4 223/250/4
f 226/252/2 224/319/2 228/248/2
f 232/255/15 239/320/15 242/321/15
f 239/320/15 240/257/15 242/321/15
f 240/257/15 241/322/15 242/321/15
f 242/321/15 233/323/15 232/255/15
f 233/323/15 234/253/15 232/255/15
f 246/256/3 241/322/3 240/257/3
f 238/259/2 233/324/2 242/260/2
f 234/262/1 237/325/1 236/263/1
f 244/265/19 235/326/19 238/327/19
f 235/326/19 236/263/19 238/327/19
f 236/263/19 237/325/19 238/327/19
f 238/327/19 245/328/19 244/265/19
f 245/328/19 246/256/19 244/265/19
f 232/266/43 231/329/43 236/267/43
f 238/269/44 237/325/44 234/262/44
f 244/271/45 243/258/45 240/257/45
f 242/260/46 241/322/46 246/256/46
f 244/271/4 239/272/4 232/266/4
f 248/273/1 250/276/1 249/274/1
f 250/276/19 254/278/19 253/277/19
f 254/278/3 252/280/3 251/279/3
f 252/280/15 248/330/15 247/281/15
f 253/277/4 251/279/4 247/282/4
f 250/284/2 248/331/2 252/280/2
f 256/285/1 258/288/1 257/286/1
f 258/288/19 262/290/19 261/289/19
f 262/290/3 260/292/3 259/291/3
f 260/292/15 256/332/15 255/293/15
f 261/289/4 259/291/4 255/294/4
f 258/296/2 256/333/2 260/292/2
f 265/297/19 266/304/19 264/298/19
f 268/300/15 270/308/15 269/301/15
f 265/297/2 271/307/2 274/303/2
f 264/298/4 273/306/4 272/305/4
f 266/304/3 274/303/3 273/306/3
f 263/299/1 272/305/1 271/307/1
f 269/301/47 271/307/47 272/305/47
f 267/302/48 272/305/48 273/306/48
f 268/300/49 273/306/49 274/303/49
f 270/308/50 274/303/50 271/307/50
