# Blender v2.92.0 OBJ File: 'untitled.blend'
# www.blender.org
mtllib player.mtl
o Cube.007_Cube.008
v -0.500000 -0.500000 5.493170
v -0.500000 0.500000 5.493170
v -0.500000 -0.500000 4.493170
v -0.500000 0.500000 4.493170
v 0.500000 -0.500000 5.493170
v 0.500000 0.500000 5.493170
v 0.500000 -0.500000 4.493170
v 0.500000 0.500000 4.493170
v -0.600000 -0.200000 2.144390
v -0.600000 0.200000 2.144390
v -0.600000 -0.200000 0.144390
v -0.600000 0.200000 0.144390
v -0.200000 -0.200000 2.144390
v -0.200000 0.200000 2.144390
v -0.200000 -0.200000 0.144390
v -0.200000 0.200000 0.144390
v 0.200000 -0.200000 2.144390
v 0.200000 0.200000 2.144390
v 0.200000 -0.200000 0.144390
v 0.200000 0.200000 0.144390
v 0.600000 -0.200000 2.144390
v 0.600000 0.200000 2.144390
v 0.600000 -0.200000 0.144390
v 0.600000 0.200000 0.144390
v -0.800000 -0.272615 4.500000
v -0.436184 -0.500000 4.500000
v -0.436184 0.500000 4.500000
v -0.800000 0.272615 4.500000
v -0.436184 -0.500000 1.500000
v -0.800000 -0.272615 1.500000
v -0.800000 0.272615 1.500000
v -0.436184 0.500000 1.500000
v 0.436184 -0.500000 4.500000
v 0.800000 -0.272615 4.500000
v 0.800000 0.272615 4.500000
v 0.436184 0.500000 4.500000
v 0.800000 -0.272615 1.500000
v 0.436184 -0.500000 1.500000
v 0.436184 0.500000 1.500000
v 0.800000 0.272615 1.500000
v -0.600000 -0.200000 2.144390
v -0.600000 0.200000 2.144390
v -0.600000 -0.200000 0.144390
v -0.600000 0.200000 0.144390
v -0.200000 -0.200000 2.144390
v -0.200000 0.200000 2.144390
v -0.200000 -0.200000 0.144390
v -0.200000 0.200000 0.144390
v -1.200000 0.200000 2.700000
v -0.800000 0.200000 2.700000
v -1.200000 -0.200000 3.065226
v -1.200000 0.200000 3.065226
v -0.800000 -0.200000 3.065226
v -0.800000 0.200000 3.065226
v -1.200000 1.132689 3.065226
v -1.200000 1.132689 2.700000
v -0.800000 1.132689 2.700000
v -0.800000 1.132689 3.065226
v -1.151334 -0.151334 4.300000
v -1.200000 -0.200000 4.105337
v -1.151334 0.151334 4.300000
v -1.200000 0.200000 4.105337
v -0.800000 -0.151334 4.300000
v -0.800000 -0.200000 4.105337
v -0.800000 0.200000 4.105337
v -0.800000 0.151334 4.300000
v -1.200000 -0.151536 2.700000
v -1.200000 -0.200000 2.893857
v -0.800000 -0.200000 2.893857
v -0.800000 -0.151536 2.700000
v 0.811322 -0.199998 4.346789
v 0.811322 0.200002 4.346789
v 0.811322 -0.199998 2.346789
v 0.811322 0.200002 2.346789
v 1.211322 -0.199998 4.346789
v 1.211322 0.200002 4.346789
v 1.211322 -0.199998 2.346789
v 1.211322 0.200002 2.346789
v -1.000000 -1.000000 0.000000
v 1.000000 -1.000000 0.000000
v -1.000000 1.000000 0.000000
v 1.000000 1.000000 0.000000
v -0.682471 -0.682471 0.301290
v 0.682471 -0.682471 0.301290
v -0.682471 0.682471 0.301290
v 0.682471 0.682471 0.301290
v -1.000000 1.000000 0.177987
v -1.000000 -1.000000 0.177987
v 1.000000 -1.000000 0.177987
v 1.000000 1.000000 0.177987
vt 0.625000 0.000000
vt 0.375000 0.250000
vt 0.375000 0.000000
vt 0.625000 0.250000
vt 0.375000 0.500000
vt 0.625000 0.500000
vt 0.375000 0.750000
vt 0.625000 0.750000
vt 0.375000 1.000000
vt 0.125000 0.750000
vt 0.125000 0.500000
vt 0.875000 0.500000
vt 0.625000 0.000000
vt 0.375000 0.250000
vt 0.375000 0.000000
vt 0.625000 0.250000
vt 0.375000 0.500000
vt 0.625000 0.500000
vt 0.375000 0.750000
vt 0.625000 0.750000
vt 0.375000 1.000000
vt 0.125000 0.750000
vt 0.125000 0.500000
vt 0.875000 0.500000
vt 0.625000 0.000000
vt 0.375000 0.250000
vt 0.375000 0.000000
vt 0.625000 0.250000
vt 0.375000 0.500000
vt 0.625000 0.500000
vt 0.375000 0.750000
vt 0.625000 0.750000
vt 0.375000 1.000000
vt 0.125000 0.750000
vt 0.125000 0.500000
vt 0.875000 0.500000
vt 0.568154 1.000000
vt 0.431846 1.000000
vt 0.375000 0.943154
vt 0.568154 0.500000
vt 0.431846 0.750000
vt 0.431846 0.500000
vt 0.818154 0.500000
vt 0.681846 0.750000
vt 0.681846 0.500000
vt 0.568154 0.000000
vt 0.431846 0.250000
vt 0.431846 0.000000
vt 0.375000 0.443154
vt 0.181846 0.750000
vt 0.125000 0.500000
vt 0.181846 0.500000
vt 0.625000 0.250000
vt 0.625000 0.000000
vt 0.318154 0.500000
vt 0.318154 0.750000
vt 0.625000 0.000000
vt 0.375000 0.250000
vt 0.375000 0.000000
vt 0.625000 0.250000
vt 0.375000 0.500000
vt 0.625000 0.500000
vt 0.375000 0.750000
vt 0.625000 0.750000
vt 0.375000 1.000000
vt 0.125000 0.750000
vt 0.125000 0.500000
vt 0.875000 0.500000
vt 0.625000 0.557067
vt 0.375000 0.530290
vt 0.625000 0.500000
vt 0.125000 0.557067
vt 0.125000 0.530290
vt 0.375000 0.557067
vt 0.125000 0.719584
vt 0.875000 0.557067
vt 0.625000 0.719584
vt 0.594584 0.750000
vt 0.405416 0.750000
vt 0.375000 0.719584
vt 0.625000 0.557067
vt 0.625000 0.250000
vt 0.405290 0.250000
vt 0.375000 0.219710
vt 0.405416 0.969584
vt 0.875000 0.500000
vt 0.625000 0.500000
vt 0.625000 0.192933
vt 0.625000 0.250000
vt 0.875000 0.557067
vt 0.594584 0.000000
vt 0.375000 0.030416
vt 0.405416 0.000000
vt 0.155416 0.750000
vt 0.625000 0.750000
vt 0.594584 0.969584
vt 0.625000 0.030416
vt 0.375000 0.192933
vt 0.375000 0.500000
vt 0.405290 0.500000
vt 0.625000 0.000000
vt 0.375000 0.250000
vt 0.375000 0.000000
vt 0.625000 0.250000
vt 0.375000 0.500000
vt 0.625000 0.500000
vt 0.375000 0.750000
vt 0.625000 0.750000
vt 0.375000 1.000000
vt 0.125000 0.750000
vt 0.125000 0.500000
vt 0.875000 0.500000
vt 0.000000 1.000000
vt 1.000000 0.000000
vt 0.000000 0.000000
vt 0.841236 0.158764
vt 0.158764 0.841236
vt 0.158764 0.158764
vt 1.000000 1.000000
vt 1.000000 1.000000
vt 0.000000 0.000000
vt 1.000000 0.000000
vt 0.000000 1.000000
vt 0.841236 0.841236
vt 0.625000 1.000000
vt 0.875000 0.750000
vt 0.625000 1.000000
vt 0.875000 0.750000
vt 0.625000 1.000000
vt 0.875000 0.750000
vt 0.375000 0.806846
vt 0.625000 0.806846
vt 0.568154 0.750000
vt 0.625000 0.943154
vt 0.818154 0.750000
vt 0.568154 0.250000
vt 0.375000 0.306846
vt 0.625000 0.306846
vt 0.625000 0.443154
vt 0.125000 0.750000
vt 0.625000 1.000000
vt 0.875000 0.750000
vt 0.875000 0.719584
vt 0.625000 0.192933
vt 0.375000 0.750000
vt 0.625000 1.000000
vt 0.125000 0.500000
vt 0.625000 1.000000
vt 0.875000 0.750000
vn -1.0000 0.0000 0.0000
vn 0.0000 0.0000 -1.0000
vn 1.0000 0.0000 0.0000
vn 0.0000 0.0000 1.0000
vn 0.0000 -1.0000 0.0000
vn 0.0000 1.0000 0.0000
vn -0.5300 -0.8480 0.0000
vn -0.5300 0.8480 0.0000
vn 0.5300 -0.8480 0.0000
vn 0.5300 0.8480 0.0000
vn -0.9701 0.0000 0.2425
vn 0.0000 -0.9701 0.2425
vn 0.0000 0.9701 0.2425
vn 0.0000 -0.9701 -0.2425
vn -0.3620 0.0000 0.9322
vn 0.0000 -0.3620 0.9322
vn 0.3620 0.0000 0.9322
vn 0.0000 0.3620 0.9322
usemtl None
s off
f 2/1/1 3/2/1 1/3/1
f 4/4/2 7/5/2 3/2/2
f 8/6/3 5/7/3 7/5/3
f 6/8/4 1/9/4 5/7/4
f 7/5/5 1/10/5 3/11/5
f 4/12/6 6/8/6 8/6/6
f 10/13/1 11/14/1 9/15/1
f 12/16/2 15/17/2 11/14/2
f 16/18/3 13/19/3 15/17/3
f 14/20/4 9/21/4 13/19/4
f 15/17/5 9/22/5 11/23/5
f 12/24/6 14/20/6 16/18/6
f 18/25/1 19/26/1 17/27/1
f 20/28/2 23/29/2 19/26/2
f 24/30/3 21/31/3 23/29/3
f 22/32/4 17/33/4 21/31/4
f 23/29/5 17/34/5 19/35/5
f 20/36/6 22/32/6 24/30/6
f 28/37/4 25/38/4 26/39/4
f 40/40/3 34/41/3 37/42/3
f 32/43/6 36/44/6 39/45/6
f 28/46/1 30/47/1 25/48/1
f 40/40/2 37/42/2 38/49/2
f 26/50/7 30/51/7 29/52/7
f 32/53/8 28/46/8 27/54/8
f 38/55/9 34/41/9 33/56/9
f 36/44/10 40/40/10 39/45/10
f 38/55/5 26/50/5 29/52/5
f 42/57/1 43/58/1 41/59/1
f 44/60/2 47/61/2 43/58/2
f 48/62/3 45/63/3 47/61/3
f 46/64/4 41/65/4 45/63/4
f 47/61/5 41/66/5 43/67/5
f 44/68/6 46/64/6 48/62/6
f 54/69/3 69/70/3 50/71/3
f 69/70/5 51/72/5 68/73/5
f 53/74/5 60/75/5 51/72/5
f 52/76/6 65/77/6 54/69/6
f 66/78/3 63/79/3 64/80/3
f 50/71/3 58/81/3 54/69/3
f 49/82/1 67/83/1 68/84/1
f 66/78/4 59/85/4 63/79/4
f 56/86/6 58/81/6 57/87/6
f 52/88/1 56/89/1 49/82/1
f 49/82/2 57/87/2 50/71/2
f 54/69/4 55/90/4 52/76/4
f 61/91/11 60/92/11 59/93/11
f 64/80/12 59/94/12 60/75/12
f 65/95/13 61/96/13 66/78/13
f 62/97/1 51/98/1 60/92/1
f 68/73/14 70/99/14 69/70/14
f 49/82/2 70/100/2 67/83/2
f 72/101/1 73/102/1 71/103/1
f 74/104/2 77/105/2 73/102/2
f 78/106/3 75/107/3 77/105/3
f 76/108/4 71/109/4 75/107/4
f 77/105/5 71/110/5 73/111/5
f 74/112/6 76/108/6 78/106/6
f 81/113/2 80/114/2 79/115/2
f 84/116/4 85/117/4 83/118/4
f 81/113/6 90/119/6 82/120/6
f 80/114/5 88/121/5 79/115/5
f 82/120/3 89/122/3 80/114/3
f 79/115/1 87/123/1 81/113/1
f 83/118/15 87/123/15 88/121/15
f 84/116/16 88/121/16 89/122/16
f 86/124/17 89/122/17 90/119/17
f 85/117/18 90/119/18 87/123/18
f 2/1/1 4/4/1 3/2/1
f 4/4/2 8/6/2 7/5/2
f 8/6/3 6/8/3 5/7/3
f 6/8/4 2/125/4 1/9/4
f 7/5/5 5/7/5 1/10/5
f 4/12/6 2/126/6 6/8/6
f 10/13/1 12/16/1 11/14/1
f 12/16/2 16/18/2 15/17/2
f 16/18/3 14/20/3 13/19/3
f 14/20/4 10/127/4 9/21/4
f 15/17/5 13/19/5 9/22/5
f 12/24/6 10/128/6 14/20/6
f 18/25/1 20/28/1 19/26/1
f 20/28/2 24/30/2 23/29/2
f 24/30/3 22/32/3 21/31/3
f 22/32/4 18/129/4 17/33/4
f 23/29/5 21/31/5 17/34/5
f 20/36/6 18/130/6 22/32/6
f 26/39/4 33/131/4 36/132/4
f 33/131/4 34/41/4 36/132/4
f 34/41/4 35/133/4 36/132/4
f 36/132/4 27/134/4 26/39/4
f 27/134/4 28/37/4 26/39/4
f 40/40/3 35/133/3 34/41/3
f 32/43/6 27/135/6 36/44/6
f 28/46/1 31/136/1 30/47/1
f 38/49/2 29/137/2 32/138/2
f 29/137/2 30/47/2 32/138/2
f 30/47/2 31/136/2 32/138/2
f 32/138/2 39/139/2 38/49/2
f 39/139/2 40/40/2 38/49/2
f 26/50/7 25/140/7 30/51/7
f 32/53/8 31/136/8 28/46/8
f 38/55/9 37/42/9 34/41/9
f 36/44/10 35/133/10 40/40/10
f 38/55/5 33/56/5 26/50/5
f 42/57/1 44/60/1 43/58/1
f 44/60/2 48/62/2 47/61/2
f 48/62/3 46/64/3 45/63/3
f 46/64/4 42/141/4 41/65/4
f 47/61/5 45/63/5 41/66/5
f 44/68/6 42/142/6 46/64/6
f 53/74/3 69/70/3 54/69/3
f 69/70/3 70/100/3 50/71/3
f 69/70/5 53/74/5 51/72/5
f 53/74/5 64/80/5 60/75/5
f 52/76/6 62/143/6 65/77/6
f 64/80/3 53/74/3 54/69/3
f 54/69/3 65/77/3 64/80/3
f 65/77/3 66/78/3 64/80/3
f 50/71/3 57/87/3 58/81/3
f 68/84/1 51/98/1 52/88/1
f 52/88/1 49/82/1 68/84/1
f 66/78/4 61/96/4 59/85/4
f 56/86/6 55/90/6 58/81/6
f 52/88/1 55/144/1 56/89/1
f 49/82/2 56/89/2 57/87/2
f 54/69/4 58/81/4 55/90/4
f 61/91/11 62/97/11 60/92/11
f 64/80/12 63/145/12 59/94/12
f 65/95/13 62/146/13 61/96/13
f 62/97/1 52/88/1 51/98/1
f 68/73/14 67/147/14 70/99/14
f 49/82/2 50/71/2 70/100/2
f 72/101/1 74/104/1 73/102/1
f 74/104/2 78/106/2 77/105/2
f 78/106/3 76/108/3 75/107/3
f 76/108/4 72/148/4 71/109/4
f 77/105/5 75/107/5 71/110/5
f 74/112/6 72/149/6 76/108/6
f 81/113/2 82/120/2 80/114/2
f 84/116/4 86/124/4 85/117/4
f 81/113/6 87/123/6 90/119/6
f 80/114/5 89/122/5 88/121/5
f 82/120/3 90/119/3 89/122/3
f 79/115/1 88/121/1 87/123/1
f 83/118/15 85/117/15 87/123/15
f 84/116/16 83/118/16 88/121/16
f 86/124/17 84/116/17 89/122/17
f 85/117/18 86/124/18 90/119/18
