# Blender v2.92.0 OBJ File: 'hero.blend'
# www.blender.org
mtllib runner.mtl
o Cube.010
v 0.591797 0.591597 -0.023441
v 0.000000 0.993434 0.000000
v 0.721481 0.721280 0.000000
v -0.591797 0.591597 -0.023441
v 0.000000 0.721280 -0.028577
v -0.591797 0.591597 0.023441
v 0.000000 0.721281 0.028578
v 0.591797 0.591597 0.023441
v 0.591797 -0.591998 0.023441
v 0.000000 -0.000201 0.039358
v 0.000000 -0.721681 0.028578
v 0.721481 -0.000201 0.028578
v -0.721481 -0.000201 0.028578
v -0.591797 -0.591998 0.023441
v -0.993635 -0.000201 0.000000
v -0.721481 -0.721682 -0.000000
v -0.721481 -0.000201 -0.028578
v -0.591797 -0.591998 -0.023441
v 0.000000 -0.993835 -0.000000
v 0.591797 -0.591998 -0.023441
v 0.000000 -0.721681 -0.028578
v 0.993635 -0.000201 0.000000
v 0.721481 -0.721681 -0.000000
v 0.721481 -0.000201 -0.028578
v 0.000000 -0.000201 -0.039358
v -0.351613 0.753980 -0.511176
v -0.351613 -0.151185 -0.819396
v -0.351613 0.659893 -0.348961
v -0.351613 -0.057098 -0.981612
v -0.117204 -0.151185 -0.819396
v -0.117204 0.753980 -0.511176
v -0.117204 0.659893 -0.348961
v -0.117204 -0.057098 -0.981612
v 0.117204 -0.777860 -0.188572
v 0.117204 -0.003151 -0.749062
v 0.117204 -0.140733 -0.876487
v 0.351613 -0.140733 -0.876487
v 0.351613 -0.003151 -0.749062
v 0.351613 -0.777860 -0.188572
v 0.351613 -0.640278 -0.061147
v -0.411295 0.154689 -0.675119
v -0.411295 -0.302145 -2.765913
v -0.411295 -0.302145 -0.675119
v -0.411295 0.154690 -2.765913
v 0.411295 -0.302145 -2.765913
v 0.411295 0.154690 -2.765913
v 0.411295 -0.302145 -0.675119
v 0.411295 0.154689 -0.675119
v 0.415374 -0.605066 -2.353239
v 0.415374 0.124178 -2.285562
v 0.415374 -0.237525 -2.685578
v 0.725071 -0.237525 -2.685578
v 0.725071 0.124178 -2.285562
v 0.725071 -0.605066 -2.353239
v 0.725071 -0.243363 -1.953224
v 0.450237 -1.164333 -1.765692
v 0.450237 -0.139633 -2.128865
v 0.450237 -0.419902 -2.438822
v 0.690208 -0.419902 -2.438822
v 0.690208 -0.139633 -2.128865
v 0.690208 -1.164333 -1.765692
v 0.690208 -0.884064 -1.455736
v -0.669836 1.137144 -2.391030
v -0.669836 0.050411 -2.421309
v -0.669836 0.200228 -2.031209
v -0.429864 0.200228 -2.031209
v -0.429864 0.050411 -2.421309
v -0.429864 1.137144 -2.391030
v -0.429864 0.987326 -2.781131
v -0.704698 0.403790 -2.044354
v -0.704698 -0.252132 -2.370149
v -0.704698 -0.058785 -1.866703
v -0.395002 -0.058785 -1.866703
v -0.395002 -0.252132 -2.370149
v -0.395002 0.403790 -2.044354
v -0.395002 0.210442 -2.547801
v -0.281226 0.277519 -2.732027
v -0.281226 -0.387748 -3.294481
v -0.281226 -0.387749 -2.732028
v -0.281226 0.277519 -3.294481
v 0.281226 -0.387748 -3.294481
v 0.281226 0.277519 -3.294481
v 0.281226 -0.387749 -2.732028
v 0.281226 0.277519 -2.732027
v -0.721481 0.721280 0.000000
v 0.117204 -0.640278 -0.061147
v 0.415374 -0.243363 -1.953224
v 0.450237 -0.884064 -1.455736
v -0.669836 0.987326 -2.781131
v -0.704698 0.210442 -2.547801
vt 0.666667 0.458333
vt 0.751736 0.625000
vt 0.631945 0.625000
vt 0.875000 0.500000
vt 0.755208 0.494792
vt 0.875000 0.750000
vt 0.755208 0.755208
vt 0.666667 0.791667
vt 0.333333 0.791667
vt 0.500000 0.876736
vt 0.369792 0.880208
vt 0.500000 0.756944
vt 0.625000 1.000000
vt 0.500000 1.000000
vt 0.375000 1.000000
vt 0.375000 0.000000
vt 0.500000 0.125000
vt 0.375000 0.125000
vt 0.625000 0.000000
vt 0.500000 0.000000
vt 0.625000 0.250000
vt 0.500000 0.250000
vt 0.375000 0.250000
vt 0.125000 0.500000
vt 0.248264 0.625000
vt 0.125000 0.625000
vt 0.333333 0.458333
vt 0.244792 0.494792
vt 0.244792 0.755208
vt 0.125000 0.750000
vt 0.500000 0.625000
vt 0.368056 0.625000
vt 0.500000 0.493056
vt 0.500000 0.373264
vt 0.369792 0.369792
vt 0.625000 0.000000
vt 0.375000 0.250000
vt 0.375000 0.000000
vt 0.625000 0.250000
vt 0.375000 0.500000
vt 0.625000 0.750000
vt 0.375000 0.750000
vt 0.375000 1.000000
vt 0.125000 0.750000
vt 0.125000 0.500000
vt 0.875000 0.500000
vt 0.625000 0.500000
vt 0.375000 0.000000
vt 0.625000 0.250000
vt 0.375000 0.250000
vt 0.375000 0.500000
vt 0.625000 0.500000
vt 0.375000 0.750000
vt 0.625000 0.750000
vt 0.375000 1.000000
vt 0.125000 0.750000
vt 0.125000 0.500000
vt 0.875000 0.500000
vt 0.625000 0.000000
vt 0.375000 0.250000
vt 0.375000 0.000000
vt 0.625000 0.250000
vt 0.375000 0.500000
vt 0.625000 0.500000
vt 0.375000 0.750000
vt 0.625000 0.750000
vt 0.375000 1.000000
vt 0.125000 0.750000
vt 0.125000 0.500000
vt 0.875000 0.500000
vt 0.375000 0.000000
vt 0.625000 0.250000
vt 0.375000 0.250000
vt 0.375000 0.500000
vt 0.625000 0.500000
vt 0.375000 0.750000
vt 0.625000 0.750000
vt 0.375000 1.000000
vt 0.125000 0.750000
vt 0.125000 0.500000
vt 0.875000 0.500000
vt 0.375000 0.000000
vt 0.625000 0.250000
vt 0.375000 0.250000
vt 0.375000 0.500000
vt 0.625000 0.500000
vt 0.375000 0.750000
vt 0.625000 0.750000
vt 0.375000 1.000000
vt 0.125000 0.750000
vt 0.125000 0.500000
vt 0.875000 0.500000
vt 0.375000 0.000000
vt 0.625000 0.250000
vt 0.375000 0.250000
vt 0.375000 0.500000
vt 0.625000 0.500000
vt 0.375000 0.750000
vt 0.625000 0.750000
vt 0.375000 1.000000
vt 0.125000 0.750000
vt 0.125000 0.500000
vt 0.875000 0.500000
vt 0.375000 0.000000
vt 0.625000 0.250000
vt 0.375000 0.250000
vt 0.375000 0.500000
vt 0.625000 0.500000
vt 0.375000 0.750000
vt 0.625000 0.750000
vt 0.375000 1.000000
vt 0.125000 0.750000
vt 0.125000 0.500000
vt 0.875000 0.500000
vt 0.625000 0.000000
vt 0.375000 0.250000
vt 0.375000 0.000000
vt 0.625000 0.250000
vt 0.375000 0.500000
vt 0.625000 0.500000
vt 0.375000 0.750000
vt 0.625000 0.750000
vt 0.375000 1.000000
vt 0.125000 0.750000
vt 0.125000 0.500000
vt 0.875000 0.500000
vt 0.875000 0.625000
vt 0.630208 0.880208
vt 0.625000 0.125000
vt 0.630208 0.369792
vt 0.625000 1.000000
vt 0.875000 0.750000
vt 0.625000 0.000000
vt 0.625000 1.000000
vt 0.875000 0.750000
vt 0.625000 1.000000
vt 0.875000 0.750000
vt 0.625000 0.000000
vt 0.625000 1.000000
vt 0.875000 0.750000
vt 0.625000 0.000000
vt 0.625000 1.000000
vt 0.875000 0.750000
vt 0.625000 0.000000
vt 0.625000 1.000000
vt 0.875000 0.750000
vt 0.625000 0.000000
vt 0.625000 1.000000
vt 0.875000 0.750000
vt 0.625000 1.000000
vt 0.875000 0.750000
vn 0.0490 0.1300 -0.9903
vn -0.0315 0.1044 -0.9940
vn -0.0315 0.1044 0.9940
vn 0.0490 0.1300 0.9903
vn 0.0134 -0.0134 0.9998
vn 0.0120 -0.0149 0.9998
vn 0.0134 0.0134 0.9998
vn 0.0149 0.0120 0.9998
vn -0.0134 0.0134 0.9998
vn -0.0149 0.0120 0.9998
vn -0.0134 -0.0134 0.9998
vn -0.0120 -0.0149 0.9998
vn -0.1300 -0.0490 0.9903
vn -0.1044 0.0315 0.9940
vn -0.1044 0.0315 -0.9940
vn -0.1300 -0.0490 -0.9903
vn -0.0490 -0.1300 -0.9903
vn 0.0315 -0.1044 -0.9940
vn 0.0315 -0.1044 0.9940
vn -0.0490 -0.1300 0.9903
vn 0.1300 -0.0490 -0.9903
vn 0.1044 0.0315 -0.9940
vn 0.1044 0.0315 0.9940
vn 0.1300 -0.0490 0.9903
vn -0.0134 -0.0134 -0.9998
vn -0.0120 -0.0149 -0.9998
vn -0.0134 0.0134 -0.9998
vn -0.0149 0.0120 -0.9998
vn 0.0134 0.0134 -0.9998
vn 0.0149 0.0120 -0.9998
vn 0.0134 -0.0134 -0.9998
vn 0.0120 -0.0149 -0.9998
vn -1.0000 0.0000 0.0000
vn 0.0000 -0.8650 -0.5017
vn 1.0000 0.0000 0.0000
vn 0.0000 0.8650 0.5017
vn 0.0000 -0.5017 0.8650
vn 0.0000 0.5017 -0.8650
vn 0.0000 0.6795 -0.7337
vn 0.0000 -0.6795 0.7337
vn 0.0000 -0.7337 -0.6795
vn 0.0000 0.7337 0.6795
vn 0.0000 0.0000 -1.0000
vn 0.0000 -0.0000 1.0000
vn 0.0000 -1.0000 -0.0000
vn 0.0000 1.0000 0.0000
vn 0.0000 0.7417 -0.6707
vn 0.0000 -0.7417 0.6707
vn 0.0000 -0.6707 -0.7417
vn 0.0000 0.6707 0.7417
vn 0.0000 -0.9335 0.3585
vn 0.0000 0.9335 -0.3585
vn 0.0000 0.3585 0.9335
vn 0.0000 -0.3585 -0.9335
vn 0.0315 0.1044 -0.9940
vn -0.0490 0.1300 -0.9903
vn -0.0490 0.1300 0.9903
vn 0.0315 0.1044 0.9940
vn 0.0149 -0.0120 0.9998
vn 0.0120 0.0149 0.9998
vn -0.0120 0.0149 0.9998
vn -0.0149 -0.0120 0.9998
vn -0.1044 -0.0315 0.9940
vn -0.1300 0.0490 0.9903
vn -0.1300 0.0490 -0.9903
vn -0.1044 -0.0315 -0.9940
vn -0.0315 -0.1044 -0.9940
vn 0.0490 -0.1300 -0.9903
vn 0.0490 -0.1300 0.9903
vn -0.0315 -0.1044 0.9940
vn 0.1044 -0.0315 -0.9940
vn 0.1300 0.0490 -0.9903
vn 0.1300 0.0490 0.9903
vn 0.1044 -0.0315 0.9940
vn -0.0149 -0.0120 -0.9998
vn -0.0120 0.0149 -0.9998
vn 0.0120 0.0149 -0.9998
vn 0.0149 -0.0120 -0.9998
usemtl Material.004
s 1
f 1/1/1 2/2/1 3/3/1
f 4/4/2 2/2/2 5/5/2
f 2/2/3 6/6/3 7/7/3
f 2/2/4 8/8/4 3/3/4
f 9/9/5 10/10/5 11/11/6
f 8/8/7 10/10/7 12/12/8
f 10/10/9 6/13/9 13/14/10
f 10/10/11 14/15/11 11/11/12
f 14/16/13 15/17/13 16/18/13
f 6/19/14 15/17/14 13/20/14
f 15/17/15 4/21/15 17/22/15
f 15/17/16 18/23/16 16/18/16
f 18/24/17 19/25/17 16/26/17
f 20/27/18 19/25/18 21/28/18
f 19/25/19 9/9/19 11/29/19
f 19/25/20 14/30/20 16/26/20
f 20/27/21 22/31/21 23/32/21
f 1/1/22 22/31/22 24/33/22
f 22/31/23 8/8/23 12/12/23
f 22/31/24 9/9/24 23/32/24
f 18/23/25 25/34/25 21/35/26
f 4/21/27 25/34/27 17/22/28
f 25/34/29 1/1/29 24/33/30
f 25/34/31 20/27/31 21/35/32
f 26/36/33 27/37/33 28/38/33
f 29/39/34 30/40/34 27/37/34
f 30/40/35 31/41/35 32/42/35
f 31/41/36 28/43/36 32/42/36
f 30/40/37 28/44/37 27/45/37
f 29/46/38 31/41/38 33/47/38
f 34/48/33 35/49/33 36/50/33
f 35/49/39 37/51/39 36/50/39
f 38/52/35 39/53/35 37/51/35
f 40/54/40 34/55/40 39/53/40
f 37/51/41 34/56/41 36/57/41
f 35/58/42 40/54/42 38/52/42
f 41/59/33 42/60/33 43/61/33
f 44/62/43 45/63/43 42/60/43
f 46/64/35 47/65/35 45/63/35
f 48/66/44 43/67/44 47/65/44
f 45/63/45 43/68/45 42/69/45
f 44/70/46 48/66/46 46/64/46
f 49/71/33 50/72/33 51/73/33
f 50/72/47 52/74/47 51/73/47
f 53/75/35 54/76/35 52/74/35
f 55/77/48 49/78/48 54/76/48
f 52/74/49 49/79/49 51/80/49
f 50/81/50 55/77/50 53/75/50
f 56/82/33 57/83/33 58/84/33
f 57/83/47 59/85/47 58/84/47
f 60/86/35 61/87/35 59/85/35
f 62/88/48 56/89/48 61/87/48
f 59/85/49 56/90/49 58/91/49
f 57/92/50 62/88/50 60/86/50
f 63/93/33 64/94/33 65/95/33
f 64/94/51 66/96/51 65/95/51
f 67/97/35 68/98/35 66/96/35
f 69/99/52 63/100/52 68/98/52
f 66/96/53 63/101/53 65/102/53
f 64/103/54 69/99/54 67/97/54
f 70/104/33 71/105/33 72/106/33
f 71/105/51 73/107/51 72/106/51
f 74/108/35 75/109/35 73/107/35
f 76/110/52 70/111/52 75/109/52
f 73/107/53 70/112/53 72/113/53
f 71/114/54 76/110/54 74/108/54
f 77/115/33 78/116/33 79/117/33
f 80/118/43 81/119/43 78/116/43
f 82/120/35 83/121/35 81/119/35
f 84/122/44 79/123/44 83/121/44
f 81/119/45 79/124/45 78/125/45
f 80/126/46 84/122/46 82/120/46
f 1/1/55 5/5/55 2/2/55
f 4/4/56 85/127/56 2/2/56
f 2/2/57 85/127/57 6/6/57
f 2/2/58 7/7/58 8/8/58
f 9/9/5 12/12/59 10/10/5
f 8/8/7 7/128/60 10/10/7
f 10/10/9 7/128/61 6/13/9
f 10/10/11 13/14/62 14/15/11
f 14/16/63 13/20/63 15/17/63
f 6/19/64 85/129/64 15/17/64
f 15/17/65 85/129/65 4/21/65
f 15/17/66 17/22/66 18/23/66
f 18/24/67 21/28/67 19/25/67
f 20/27/68 23/32/68 19/25/68
f 19/25/69 23/32/69 9/9/69
f 19/25/70 11/29/70 14/30/70
f 20/27/71 24/33/71 22/31/71
f 1/1/72 3/3/72 22/31/72
f 22/31/73 3/3/73 8/8/73
f 22/31/74 12/12/74 9/9/74
f 18/23/25 17/22/75 25/34/25
f 4/21/27 5/130/76 25/34/27
f 25/34/29 5/130/77 1/1/29
f 25/34/31 24/33/78 20/27/31
f 26/36/33 29/39/33 27/37/33
f 29/39/34 33/47/34 30/40/34
f 30/40/35 33/47/35 31/41/35
f 31/41/36 26/131/36 28/43/36
f 30/40/37 32/42/37 28/44/37
f 29/46/38 26/132/38 31/41/38
f 34/48/33 86/133/33 35/49/33
f 35/49/39 38/52/39 37/51/39
f 38/52/35 40/54/35 39/53/35
f 40/54/40 86/134/40 34/55/40
f 37/51/41 39/53/41 34/56/41
f 35/58/42 86/135/42 40/54/42
f 41/59/33 44/62/33 42/60/33
f 44/62/43 46/64/43 45/63/43
f 46/64/35 48/66/35 47/65/35
f 48/66/44 41/136/44 43/67/44
f 45/63/45 47/65/45 43/68/45
f 44/70/46 41/137/46 48/66/46
f 49/71/33 87/138/33 50/72/33
f 50/72/47 53/75/47 52/74/47
f 53/75/35 55/77/35 54/76/35
f 55/77/48 87/139/48 49/78/48
f 52/74/49 54/76/49 49/79/49
f 50/81/50 87/140/50 55/77/50
f 56/82/33 88/141/33 57/83/33
f 57/83/47 60/86/47 59/85/47
f 60/86/35 62/88/35 61/87/35
f 62/88/48 88/142/48 56/89/48
f 59/85/49 61/87/49 56/90/49
f 57/92/50 88/143/50 62/88/50
f 63/93/33 89/144/33 64/94/33
f 64/94/51 67/97/51 66/96/51
f 67/97/35 69/99/35 68/98/35
f 69/99/52 89/145/52 63/100/52
f 66/96/53 68/98/53 63/101/53
f 64/103/54 89/146/54 69/99/54
f 70/104/33 90/147/33 71/105/33
f 71/105/51 74/108/51 73/107/51
f 74/108/35 76/110/35 75/109/35
f 76/110/52 90/148/52 70/111/52
f 73/107/53 75/109/53 70/112/53
f 71/114/54 90/149/54 76/110/54
f 77/115/33 80/118/33 78/116/33
f 80/118/43 82/120/43 81/119/43
f 82/120/35 84/122/35 83/121/35
f 84/122/44 77/150/44 79/123/44
f 81/119/45 83/121/45 79/124/45
f 80/126/46 77/151/46 84/122/46
