# Blender v2.92.0 OBJ File: 'hero.blend'
# www.blender.org
mtllib zombie.mtl
o Cube.008_Cube.003
v 0.444170 0.350300 2.676412
v 0.444170 -0.595861 3.622573
v 0.444170 -0.595861 2.676412
v 0.444170 0.350300 3.622573
v -0.501991 -0.595861 3.622573
v -0.501991 0.350300 3.622573
v -0.501991 -0.595861 2.676412
v -0.501991 0.350300 2.676412
v -0.626090 0.567709 0.023654
v -0.028911 0.973201 -0.000000
v -0.756953 0.698572 0.000000
v 0.568268 0.567709 0.023654
v -0.028911 0.698572 0.028838
v 0.568268 0.567709 -0.023654
v -0.028911 0.698573 -0.028838
v -0.626090 0.567709 -0.023654
v -0.626090 -0.626648 -0.023654
v -0.028911 -0.029470 -0.039716
v -0.028911 -0.757511 -0.028838
v -0.756953 -0.029470 -0.028838
v 0.699131 -0.029470 -0.028838
v 0.568268 -0.626648 -0.023654
v 0.973760 -0.029470 -0.000000
v 0.699131 -0.757512 -0.000000
v 0.699132 -0.029470 0.028837
v 0.568268 -0.626648 0.023654
v -0.028911 -1.032140 0.000000
v -0.626090 -0.626648 0.023654
v -0.028911 -0.757511 0.028838
v -1.031582 -0.029470 0.000000
v -0.756953 -0.757511 0.000000
v -0.756953 -0.029470 0.028838
v -0.028911 -0.029470 0.039716
v 0.325900 0.017375 -0.000000
v 0.325900 -0.171857 0.946161
v 0.325900 -0.171857 -0.000000
v 0.325900 0.017375 0.946161
v 0.089359 -0.171857 0.946161
v 0.089359 0.017375 0.946161
v 0.089359 -0.171857 -0.000000
v 0.089359 0.017375 -0.000000
v -0.147181 0.017375 -0.000000
v -0.147181 -0.171857 0.946161
v -0.147181 -0.171857 -0.000000
v -0.147181 0.017375 0.946161
v -0.383721 -0.171857 0.946161
v -0.383721 0.017375 0.946161
v -0.383721 -0.171857 0.000000
v -0.383721 0.017375 0.000000
v 0.386124 0.126829 0.887249
v 0.386124 -0.334160 2.679309
v 0.386124 -0.334160 0.887249
v 0.386124 0.126829 2.679309
v -0.443945 -0.334160 2.679309
v -0.443945 0.126829 2.679309
v -0.443945 -0.334160 0.887249
v -0.443945 0.126829 0.887249
v -0.406994 0.133600 1.341500
v -0.406994 -0.288081 2.354261
v -0.406994 -0.288081 1.341500
v -0.406994 0.133600 2.354261
v -0.649148 -0.288081 2.354261
v -0.649148 0.133600 2.354261
v -0.649148 -0.288081 1.341500
v -0.649148 0.133600 1.341500
v 0.601939 0.663961 2.691025
v 0.601939 -0.130294 1.934283
v 0.601939 0.815141 2.297377
v 0.601939 -0.281474 2.327932
v 0.359785 -0.130294 1.934283
v 0.359785 -0.281474 2.327932
v 0.359785 0.815141 2.297377
v 0.359785 0.663961 2.691025
v 0.699131 0.698572 -0.000000
vt 0.625000 0.000000
vt 0.375000 0.250000
vt 0.375000 0.000000
vt 0.625000 0.250000
vt 0.375000 0.500000
vt 0.625000 0.500000
vt 0.375000 0.750000
vt 0.625000 0.750000
vt 0.375000 1.000000
vt 0.125000 0.750000
vt 0.125000 0.500000
vt 0.875000 0.500000
vt 0.666667 0.458333
vt 0.751736 0.625000
vt 0.631945 0.625000
vt 0.875000 0.500000
vt 0.755208 0.494792
vt 0.875000 0.750000
vt 0.755208 0.755208
vt 0.666667 0.791667
vt 0.333333 0.791667
vt 0.500000 0.876736
vt 0.369792 0.880208
vt 0.500000 0.756944
vt 0.625000 1.000000
vt 0.500000 1.000000
vt 0.375000 1.000000
vt 0.375000 0.000000
vt 0.500000 0.125000
vt 0.375000 0.125000
vt 0.625000 0.000000
vt 0.500000 0.000000
vt 0.625000 0.250000
vt 0.500000 0.250000
vt 0.375000 0.250000
vt 0.125000 0.500000
vt 0.248264 0.625000
vt 0.125000 0.625000
vt 0.333333 0.458333
vt 0.244792 0.494792
vt 0.244792 0.755208
vt 0.125000 0.750000
vt 0.500000 0.625000
vt 0.368056 0.625000
vt 0.500000 0.493056
vt 0.500000 0.373264
vt 0.369792 0.369792
vt 0.625000 0.000000
vt 0.375000 0.250000
vt 0.375000 0.000000
vt 0.625000 0.250000
vt 0.375000 0.500000
vt 0.625000 0.500000
vt 0.375000 0.750000
vt 0.625000 0.750000
vt 0.375000 1.000000
vt 0.125000 0.750000
vt 0.125000 0.500000
vt 0.875000 0.500000
vt 0.625000 0.000000
vt 0.375000 0.250000
vt 0.375000 0.000000
vt 0.625000 0.250000
vt 0.375000 0.500000
vt 0.625000 0.500000
vt 0.375000 0.750000
vt 0.625000 0.750000
vt 0.375000 1.000000
vt 0.125000 0.750000
vt 0.125000 0.500000
vt 0.875000 0.500000
vt 0.625000 0.000000
vt 0.375000 0.250000
vt 0.375000 0.000000
vt 0.625000 0.250000
vt 0.375000 0.500000
vt 0.625000 0.500000
vt 0.375000 0.750000
vt 0.625000 0.750000
vt 0.375000 1.000000
vt 0.125000 0.750000
vt 0.125000 0.500000
vt 0.875000 0.500000
vt 0.625000 0.000000
vt 0.375000 0.250000
vt 0.375000 0.000000
vt 0.625000 0.250000
vt 0.375000 0.500000
vt 0.625000 0.500000
vt 0.375000 0.750000
vt 0.625000 0.750000
vt 0.375000 1.000000
vt 0.125000 0.750000
vt 0.125000 0.500000
vt 0.875000 0.500000
vt 0.625000 0.000000
vt 0.375000 0.250000
vt 0.375000 0.000000
vt 0.625000 0.250000
vt 0.375000 0.500000
vt 0.625000 0.500000
vt 0.375000 0.750000
vt 0.625000 0.750000
vt 0.375000 1.000000
vt 0.125000 0.750000
vt 0.125000 0.500000
vt 0.875000 0.500000
vt 0.625000 1.000000
vt 0.875000 0.750000
vt 0.875000 0.625000
vt 0.630208 0.880208
vt 0.625000 0.125000
vt 0.630208 0.369792
vt 0.625000 1.000000
vt 0.875000 0.750000
vt 0.625000 1.000000
vt 0.875000 0.750000
vt 0.625000 1.000000
vt 0.875000 0.750000
vt 0.625000 1.000000
vt 0.875000 0.750000
vt 0.625000 1.000000
vt 0.875000 0.750000
vn 1.0000 0.0000 -0.0000
vn 0.0000 0.0000 1.0000
vn -1.0000 0.0000 0.0000
vn 0.0000 0.0000 -1.0000
vn 0.0000 -1.0000 -0.0000
vn 0.0000 1.0000 -0.0000
vn -0.0490 0.1300 0.9903
vn 0.0315 0.1044 0.9940
vn 0.0315 0.1044 -0.9940
vn -0.0490 0.1300 -0.9903
vn -0.0134 -0.0134 -0.9998
vn -0.0120 -0.0149 -0.9998
vn -0.0134 0.0134 -0.9998
vn -0.0149 0.0120 -0.9998
vn 0.0134 0.0134 -0.9998
vn 0.0149 0.0120 -0.9998
vn 0.0134 -0.0134 -0.9998
vn 0.0120 -0.0149 -0.9998
vn 0.1300 -0.0490 -0.9903
vn 0.1044 0.0315 -0.9940
vn 0.1044 0.0315 0.9940
vn 0.1300 -0.0490 0.9903
vn 0.0490 -0.1300 0.9903
vn -0.0315 -0.1044 0.9940
vn -0.0315 -0.1044 -0.9940
vn 0.0490 -0.1300 -0.9903
vn -0.1300 -0.0490 0.9903
vn -0.1044 0.0315 0.9940
vn -0.1044 0.0315 -0.9940
vn -0.1300 -0.0490 -0.9903
vn 0.0134 -0.0134 0.9998
vn 0.0120 -0.0149 0.9998
vn 0.0134 0.0134 0.9998
vn 0.0149 0.0120 0.9998
vn -0.0134 0.0134 0.9998
vn -0.0149 0.0120 0.9998
vn -0.0134 -0.0134 0.9998
vn -0.0120 -0.0149 0.9998
vn 0.0000 -0.9335 -0.3585
vn 0.0000 0.9335 0.3585
vn 0.0000 0.3585 -0.9335
vn 0.0000 -0.3585 0.9335
vn -0.0315 0.1044 0.9940
vn 0.0490 0.1300 0.9903
vn 0.0490 0.1300 -0.9903
vn -0.0315 0.1044 -0.9940
vn -0.0149 -0.0120 -0.9998
vn -0.0120 0.0149 -0.9998
vn 0.0120 0.0149 -0.9998
vn 0.0149 -0.0120 -0.9998
vn 0.1044 -0.0315 -0.9940
vn 0.1300 0.0490 -0.9903
vn 0.1300 0.0490 0.9903
vn 0.1044 -0.0315 0.9940
vn 0.0315 -0.1044 0.9940
vn -0.0490 -0.1300 0.9903
vn -0.0490 -0.1300 -0.9903
vn 0.0315 -0.1044 -0.9940
vn -0.1044 -0.0315 0.9940
vn -0.1300 0.0490 0.9903
vn -0.1300 0.0490 -0.9903
vn -0.1044 -0.0315 -0.9940
vn 0.0149 -0.0120 0.9998
vn 0.0120 0.0149 0.9998
vn -0.0120 0.0149 0.9998
vn -0.0149 -0.0120 0.9998
usemtl Material.001
s 1
f 1/1/1 2/2/1 3/3/1
f 4/4/2 5/5/2 2/2/2
f 6/6/3 7/7/3 5/5/3
f 8/8/4 3/9/4 7/7/4
f 5/5/5 3/10/5 2/11/5
f 4/12/6 8/8/6 6/6/6
f 9/13/7 10/14/7 11/15/7
f 12/16/8 10/14/8 13/17/8
f 10/14/9 14/18/9 15/19/9
f 10/14/10 16/20/10 11/15/10
f 17/21/11 18/22/11 19/23/12
f 16/20/13 18/22/13 20/24/14
f 18/22/15 14/25/15 21/26/16
f 18/22/17 22/27/17 19/23/18
f 22/28/19 23/29/19 24/30/19
f 14/31/20 23/29/20 21/32/20
f 23/29/21 12/33/21 25/34/21
f 23/29/22 26/35/22 24/30/22
f 26/36/23 27/37/23 24/38/23
f 28/39/24 27/37/24 29/40/24
f 27/37/25 17/21/25 19/41/25
f 27/37/26 22/42/26 24/38/26
f 28/39/27 30/43/27 31/44/27
f 9/13/28 30/43/28 32/45/28
f 30/43/29 16/20/29 20/24/29
f 30/43/30 17/21/30 31/44/30
f 26/35/31 33/46/31 29/47/32
f 12/33/33 33/46/33 25/34/34
f 33/46/35 9/13/35 32/45/36
f 33/46/37 28/39/37 29/47/38
f 34/48/1 35/49/1 36/50/1
f 37/51/2 38/52/2 35/49/2
f 39/53/3 40/54/3 38/52/3
f 41/55/4 36/56/4 40/54/4
f 38/52/5 36/57/5 35/58/5
f 37/59/6 41/55/6 39/53/6
f 42/60/1 43/61/1 44/62/1
f 45/63/2 46/64/2 43/61/2
f 47/65/3 48/66/3 46/64/3
f 49/67/4 44/68/4 48/66/4
f 46/64/5 44/69/5 43/70/5
f 45/71/6 49/67/6 47/65/6
f 50/72/1 51/73/1 52/74/1
f 53/75/2 54/76/2 51/73/2
f 55/77/3 56/78/3 54/76/3
f 57/79/4 52/80/4 56/78/4
f 54/76/5 52/81/5 51/82/5
f 53/83/6 57/79/6 55/77/6
f 58/84/1 59/85/1 60/86/1
f 61/87/2 62/88/2 59/85/2
f 63/89/3 64/90/3 62/88/3
f 65/91/4 60/92/4 64/90/4
f 62/88/5 60/93/5 59/94/5
f 61/95/6 65/91/6 63/89/6
f 66/96/1 67/97/1 68/98/1
f 69/99/39 70/100/39 67/97/39
f 71/101/3 72/102/3 70/100/3
f 73/103/40 68/104/40 72/102/40
f 70/100/41 68/105/41 67/106/41
f 69/107/42 73/103/42 71/101/42
f 1/1/1 4/4/1 2/2/1
f 4/4/2 6/6/2 5/5/2
f 6/6/3 8/8/3 7/7/3
f 8/8/4 1/108/4 3/9/4
f 5/5/5 7/7/5 3/10/5
f 4/12/6 1/109/6 8/8/6
f 9/13/43 13/17/43 10/14/43
f 12/16/44 74/110/44 10/14/44
f 10/14/45 74/110/45 14/18/45
f 10/14/46 15/19/46 16/20/46
f 17/21/11 20/24/47 18/22/11
f 16/20/13 15/111/48 18/22/13
f 18/22/15 15/111/49 14/25/15
f 18/22/17 21/26/50 22/27/17
f 22/28/51 21/32/51 23/29/51
f 14/31/52 74/112/52 23/29/52
f 23/29/53 74/112/53 12/33/53
f 23/29/54 25/34/54 26/35/54
f 26/36/55 29/40/55 27/37/55
f 28/39/56 31/44/56 27/37/56
f 27/37/57 31/44/57 17/21/57
f 27/37/58 19/41/58 22/42/58
f 28/39/59 32/45/59 30/43/59
f 9/13/60 11/15/60 30/43/60
f 30/43/61 11/15/61 16/20/61
f 30/43/62 20/24/62 17/21/62
f 26/35/31 25/34/63 33/46/31
f 12/33/33 13/113/64 33/46/33
f 33/46/35 13/113/65 9/13/35
f 33/46/37 32/45/66 28/39/37
f 34/48/1 37/51/1 35/49/1
f 37/51/2 39/53/2 38/52/2
f 39/53/3 41/55/3 40/54/3
f 41/55/4 34/114/4 36/56/4
f 38/52/5 40/54/5 36/57/5
f 37/59/6 34/115/6 41/55/6
f 42/60/1 45/63/1 43/61/1
f 45/63/2 47/65/2 46/64/2
f 47/65/3 49/67/3 48/66/3
f 49/67/4 42/116/4 44/68/4
f 46/64/5 48/66/5 44/69/5
f 45/71/6 42/117/6 49/67/6
f 50/72/1 53/75/1 51/73/1
f 53/75/2 55/77/2 54/76/2
f 55/77/3 57/79/3 56/78/3
f 57/79/4 50/118/4 52/80/4
f 54/76/5 56/78/5 52/81/5
f 53/83/6 50/119/6 57/79/6
f 58/84/1 61/87/1 59/85/1
f 61/87/2 63/89/2 62/88/2
f 63/89/3 65/91/3 64/90/3
f 65/91/4 58/120/4 60/92/4
f 62/88/5 64/90/5 60/93/5
f 61/95/6 58/121/6 65/91/6
f 66/96/1 69/99/1 67/97/1
f 69/99/39 71/101/39 70/100/39
f 71/101/3 73/103/3 72/102/3
f 73/103/40 66/122/40 68/104/40
f 70/100/41 72/102/41 68/105/41
f 69/107/42 66/123/42 73/103/42
